/* XPM */
static char *result[] = {
/* columns rows colors chars-per-pixel */
"50 50 47 1 ",
"  c #378F45",
". c #388F46",
"X c #379045",
"o c #399147",
"O c #3A9448",
"+ c #3E9D4C",
"@ c #3FA04D",
"# c #3FA84F",
"$ c #409F4C",
"% c #40A24E",
"& c #42A550",
"* c #44AC54",
"= c #48AA57",
"- c #4AAE59",
"; c #45B156",
": c #46BA57",
"> c #47B658",
", c #49B55A",
"< c #47BB58",
"1 c #49BC5A",
"2 c #51BB61",
"3 c #47C059",
"4 c #49C45B",
"5 c #4BCA5D",
"6 c #4EC460",
"7 c #4ECB61",
"8 c #55C466",
"9 c #51CD63",
"0 c #59C569",
"q c #57CB69",
"w c #5BCC6C",
"e c #52D165",
"r c #55D369",
"t c #5BD46D",
"y c #55D969",
"u c #5FD771",
"i c #5FD972",
"p c #62D473",
"a c #63DA75",
"s c #69DC7A",
"d c #6CE07D",
"f c #77B381",
"g c #78B482",
"h c #7DBD86",
"j c #7EC187",
"k c #7FC489",
"l c #81C98D",
/* pixels */
"*%+$o. oO++$&;=;;*++%&;;;;;;;+.. oo++$%*;;;;;;;;;&",
"*++$OXoOO+$+&;;;;;&+%&;;*;;;;+ .oO.++$@**;;;;;;;;&",
";%%%O oOO+$+*;;;;*@+%&*;;;;**# .Ooo+%$%*;;;;*;;;;*",
"*@&%O.OoO+&&&;;;>;&$%&;;;,<<<*.oOoo+%+$;;;;;;;;;;&",
"*%%&OXoOO+&&&;:443%@%&*;;3444:XXOoo+%%@<1;;;<31;;*",
">%%%+Oooo+++&;<44<%@%&;;;34553Ooooo+%%@:<***>34;;&",
":@&%#ooOX+@@*;145:@@%&;;;34453OOooO+&%@%%@%&&*:;;&",
":%&&%OooO@%&&;154:@@%*;;;44553OXoOo@&%@;>***<33;*&",
"%%%&#Oooo+%%&;1451+%&&;;;57997+XoOo$%%@34;;;**#OOO",
";@&&#OOOO+&%*;3451+%&&;*;5799e@XoO.$&&@14;;;444:;&",
":%&%#OOoo+%%&;4474+&&&;;;5797e@XoOo+$&$<4;;;744<:&",
";++OOoooO+%&#;4571$&&&;;<7eeey*XoOo+&$+><*;;754<;*",
"#O+OOXooo+&%&;5574$&&&;;15eeey<XoooOOOO#>**>9541**",
"1&&%*OOOo+%%&:4574$$&&;;1rreea,XOOoO&%#14<;>r544**",
"1%&&;OooO+%%&>4571$&&&;;0sp7qp,OOoO+&$#:1>;;q553;*",
":%&&*OOoo+%%&>4571+&&&**wst9rw-ooOoO&@@<41;;r544;*",
";%&&;OooO+&%#<4451+&&&*;uau7td2O...O%$%:4<;;8543;*",
"8%&&:OOoo+%&%34574+&&&*;psi9us4O$oo$%$%143;;6553;&",
"8%&%#oOOO+%%%35594+%&&&*>289us1Ooo.$%%%143;;6544>*",
"w%%#;OOoo+&%%15574+%&&**0pq422&Oo. X%$%<53;;1454*=",
"w@&&;OOOO+%%%<5575%%%&;,pw2;-=+O$. $%$%344;::445,&",
"0%&&:+oOo+&%#35557%$&&*,pau9ap1OXX X%%%343;;:415,*",
"0%%&1@.OO$%&@:4454$$%&;,wur9pt3OOXXO%$%:44;;:444,&",
"=O++1+oOO$%%@;<<1>$$%&;,paw7t9<+XXXO%+%:44;;*4451*",
"8$$$1@XOO+%&+*3474%+&&;,spq6q7;OooXO%%%344;;;447,*",
"0%&&1+oOO%&%+:4577%+@&;2dkies71OOo.o%%%355>;;347>=",
"*&%&3@oOo$%%+;5577&+&&;,yitet5<Ooooo$$%345:;;543;&",
",%&&<+oOo%%%$%;:47&+%&;>eeee75<Ooo.o%$%133>;>431>&",
"1%&%:+XOo@%%@*3477&+@&;17e7ee4:OOooo%@@111>;;4571&",
"1$&&<@XOX+%%@#4e77%@&&;,977e75<Ooo.o%+#355>>;454,*",
"1%%&1+oOX@%@@*5579%%@&;1e7e754<Ooo O+@@347<;;445,&",
"1$@#:@oOX@%@@#5557%@+&*>6777551@oo o+$#3471;;<1:*&",
"1$%&:@XOX+%@+*4557%$%%&;119954<+XXoo+%%3351;*;::*&",
"1+$&<+OXX+%$%&4456%%%%*1997745<@OXXo+$%3451;;145<&",
"1+&&3@OXX+%+@&4455%$%&;,7575541+ooXX++%3453;;:45>*",
":$$&1%XXX$%$@#4555%@%%;1778544<+o Xo+%%4451*;<44>*",
"1+@%1+XXX+%+%%4555%%%&*,475555<+oo X+$%3441;*<53>&",
"3%%%;OXXX+@+%%4554%%$&;<5555554+o  XO$%3551*;<35>*",
"1@%%:OXXX%%+%%4554%@+&;>5555553+o ..+$%4553;;>44>&",
"3%+%:OXX %@%%&4555%+@&*,5555551+o .o+$%4551;*<55<&",
":$$%>X   $@+%%3554%@@%*15555551+X.XXO$#4554;;<55>&",
"&$%%*. $ $+%%%4554%@%%*:555555>+XXXX++%4553;*<551&",
"&%%$%OXX $%$%%::11&$%%*:455555>+..XX+$%4554;*<44>&",
"&%%%%XXX $+$%%**;*@+$%;;*:;::>;+..XXO$%;:;;;;;;;;&",
"*$%%% XXXO$$%%**;;$$@@*;;;;>;;*+..X.O%%*;;;*;;;;;&",
"&%%$%X XXO$$$%**;*$+$@;=*>-;;;*O..X O$$**->;;;;-;&",
"%%$%%XXXXO%$%%*:;;%@&@;;-;;;;;*O.X..O+%*;;-;;;;;;%",
"%+$$%oXooO$$%%**;*%++&;;;;;;;;*O.XX.o+%*;;>;;;;**%",
"%%$$$$$ ..$$$====-$$$===--;;;;%o.X.$.$$$------;;;%",
"hshhggf0fgghhhlklljhhjlllllllllggpggffhkllllllllll"
};
