/* XPM */
static char *result[] = {
/* columns rows colors chars-per-pixel */
"32 32 36 1 ",
"  c #010400",
". c #010600",
"X c #040F00",
"o c #051301",
"O c #081B00",
"+ c #081A02",
"@ c #200600",
"# c #0C2302",
"$ c #122F06",
"% c #1A3F0A",
"& c #74100E",
"* c #5B2801",
"= c #683610",
"- c #1B4209",
"; c #275810",
": c #2D7111",
"> c #774620",
", c #427828",
"< c #63603D",
"1 c #895A35",
"2 c #4B9A2B",
"3 c #56923B",
"4 c #54B22E",
"5 c #60AC3F",
"6 c #62B13F",
"7 c #71E837",
"8 c #6EC443",
"9 c #B08461",
"0 c #A2A172",
"q c #94ED50",
"w c #D4A784",
"e c #EEBD95",
"r c #C6C5A3",
"t c #FFFEE1",
"y c white",
"u c None",
/* pixels */
"uuuuuuuuuuuuuuuuuuuuuuuuuuuuuuuu",
"uuuuuuuuuuuuuu@@@@@uuuuuuuuuuuuu",
"uuuuuuuuuuuuu@ew91>@uuuuuuuuuuuu",
"uuuuuuuuuuuu.*911>=*.uuuuuuuuuuu",
"uuuuuuuuuuuu.;*****;.uuuuuuuuuuu",
"uuuuuuuuuuuuu.:62:;.uuuuuuuuuuuu",
"uuuuuuuuuuuuu.OOOOO.uuuuuuuuuuuu",
"uuuuuuuuuuuuu.-$oo#.uuuuuuuuuuuu",
"uuuuuuuuuuuuu.;-$o# uuuuuuuuuuuu",
"uuuuuuuuuuuuu.;:$o#.uuuuuuuuuuuu",
"uuuuuuuuuuuuu.,:$+#.uuuuuuuuuuuu",
"uuuuuuuuuuuu.;2;$+o#.uuuuuuuuuuu",
"uuuuuuuuuuu.;,2%$+oo# uuuuuuuuuu",
"uuuuuuuuu..;,82%$$+oo# .uuuuuuuu",
"uuuuuuuu.;,3q2:%%$$++o##.uuuuuuu",
"uuuuuuu.;,572:;;%%%$$+o## uuuuuu",
"uuuuuuu.,42::;;;;%%%$$+o# uuuuuu",
"uuuuuu.,2<<<<<<<<<<<<<<<##.uuuuu",
"uuuuuu.,<yyyyyyyyyyyttrr<#.uuuuu",
"uuuuuu.;<y&&yt&t&t&ttr&r<#.uuuuu",
"uuuuuu.;<y&t&t&t&t&&t&&r<#.uuuuu",
"uuuuuu.;<t&&tt&t&t&t&r&0<#.uuuuu",
"uuuuuu.-<r&t&t&t&t&rrr&0<#.uuuuu",
"uuuuuu.-<0&r&rr&rr&rr0&0<#.uuuuu",
"uuuuuu.$<000000000000000<#.uuuuu",
"uuuuuu.#$<<<<<<<<<<<<<<<o#.uuuuu",
"uuuuuuu #$$$$$$$$$$$$#oo# uuuuuu",
"uuuuuuu.O############oo#O uuuuuu",
"uuuuuuu.$OOXXXXXXXXXXXXO$ uuuuuu",
"uuuuuuuu.$-;6,;-$$$$$$$$ uuuuuuu",
"uuuuuuuuu. .............uuuuuuuu",
"uuuuuuuuuuuuuuuuuuuuuuuuuuuuuuuu"
};
