/* XPM */
static char *_5aa83195ab84095b688bc02d7abdcedaLq48n5XbclUxVBs[] = {
/* columns rows colors chars-per-pixel */
"50 50 250 2 ",
"   c None",
".  c #010500",
"X  c #010600",
"o  c #010700",
"O  c #020600",
"+  c #020700",
"@  c #020900",
"#  c #030A00",
"$  c #030B00",
"%  c #030A01",
"&  c #050F01",
"*  c #041100",
"=  c #061201",
"-  c #061301",
";  c #061302",
":  c #071302",
">  c #061501",
",  c #061601",
"<  c #061701",
"1  c #071701",
"2  c #071402",
"3  c #081702",
"4  c #081603",
"5  c #071801",
"6  c #071901",
"7  c #081801",
"8  c #091801",
"9  c #081901",
"0  c #081A01",
"q  c #091A01",
"w  c #091B01",
"e  c #081802",
"r  c #091802",
"t  c #0A1903",
"y  c #081A02",
"u  c #091A02",
"i  c #0A1A03",
"p  c #091C01",
"a  c #0A1E01",
"s  c #091C02",
"d  c #0A1C02",
"f  c #0A1E02",
"g  c #0A1F02",
"h  c #0B1F03",
"j  c #0B1806",
"k  c #0B1D04",
"l  c #0D1F05",
"z  c #240B00",
"x  c #260C00",
"c  c #2E1005",
"v  c #34160A",
"b  c #3C1F13",
"n  c #0A2001",
"m  c #0B2103",
"M  c #0C2003",
"N  c #0C2103",
"B  c #0C2303",
"V  c #0D2303",
"C  c #0C2403",
"Z  c #0D2603",
"A  c #0D2703",
"S  c #0F2307",
"D  c #0C2404",
"F  c #0E2504",
"G  c #0F2A05",
"H  c #102106",
"J  c #112206",
"K  c #102905",
"L  c #102B05",
"P  c #112B05",
"I  c #122807",
"U  c #112C05",
"Y  c #112D05",
"T  c #122D06",
"R  c #122E06",
"E  c #122008",
"W  c #15260A",
"Q  c #19260D",
"!  c #142B0B",
"~  c #133105",
"^  c #133006",
"/  c #133106",
"(  c #143506",
")  c #143507",
"_  c #143607",
"`  c #163708",
"'  c #183409",
"]  c #1B330C",
"[  c #1E330E",
"{  c #173908",
"}  c #183B09",
"|  c #193B09",
" . c #1B3B0B",
".. c #1B3B0C",
"X. c #1C3E0D",
"o. c #1F3C0E",
"O. c #1A3210",
"+. c #262203",
"@. c #2A2504",
"#. c #333C08",
"$. c #283716",
"%. c #5B3309",
"&. c #412317",
"*. c #44261A",
"=. c #603314",
"-. c #6B3913",
";. c #1B420A",
":. c #1D470A",
">. c #1D420D",
",. c #1E420E",
"<. c #1F430E",
"1. c #22450F",
"2. c #204D0D",
"3. c #334408",
"4. c #24540E",
"5. c #234210",
"6. c #204510",
"7. c #244411",
"8. c #224810",
"9. c #234912",
"0. c #255311",
"q. c #2B5314",
"w. c #2A5D13",
"e. c #2E5815",
"r. c #2E5A15",
"t. c #2D551B",
"y. c #2F561B",
"u. c #30581D",
"i. c #2A6611",
"p. c #2B6612",
"a. c #2F6C15",
"s. c #31601D",
"d. c #336818",
"f. c #3C7D1B",
"g. c #335F20",
"h. c #396C20",
"j. c #3F7825",
"k. c #434E0A",
"l. c #75441E",
"z. c #526417",
"x. c #57691C",
"c. c #525333",
"v. c #565735",
"b. c #525832",
"n. c #565B35",
"m. c #575A36",
"M. c #585A37",
"N. c #585C36",
"B. c #7C4C26",
"V. c #77532A",
"C. c #62633E",
"Z. c #60643C",
"A. c #646541",
"S. c #666744",
"D. c #676845",
"F. c #676B44",
"G. c #6A6A48",
"H. c #6D724C",
"J. c #6D724E",
"K. c #727250",
"L. c #707650",
"P. c #7B7B58",
"I. c #7B7C5C",
"U. c #7B7C5F",
"Y. c #7C7E5F",
"T. c #7D7F5F",
"R. c #822F27",
"E. c #842D28",
"W. c #83322A",
"Q. c #87312B",
"!. c #8A3630",
"~. c #8C3A33",
"^. c #8F3F37",
"/. c #82522D",
"(. c #874635",
"). c #8C493C",
"_. c #8E493D",
"`. c #8F4C3F",
"'. c #91493F",
"]. c #9B544A",
"[. c #A05C51",
"{. c #9E6454",
"}. c #947C58",
"|. c #947E59",
" X c #A37652",
".X c #A4795A",
"XX c #A97766",
"oX c #A77B67",
"OX c #408B21",
"+X c #458F23",
"@X c #428925",
"#X c #49872B",
"$X c #4C902B",
"%X c #4F9C2E",
"&X c #51992E",
"*X c #528633",
"=X c #5B9C36",
"-X c #5BAB37",
";X c #61BF34",
":X c #66B63A",
">X c #7D815F",
",X c #7C865D",
"<X c #7F8361",
"1X c #9A8662",
"2X c #958860",
"3X c #968962",
"4X c #928E63",
"5X c #948F64",
"6X c #9F8868",
"7X c #999168",
"8X c #9A9269",
"9X c #9D986E",
"0X c #9D996F",
"qX c #9C9B6F",
"wX c #9F9E73",
"eX c #AD8771",
"rX c #B88576",
"tX c #B6827A",
"yX c #BA8879",
"uX c #AD967B",
"iX c #B1947B",
"pX c #BE907F",
"aX c #C29470",
"sX c #BAA58A",
"dX c #BCA68B",
"fX c #BAAA8D",
"gX c #BBAA8D",
"hX c #B6B58D",
"jX c #BAB292",
"kX c #C2AF94",
"lX c #C6B99C",
"zX c #CEB89F",
"xX c #D3B39E",
"cX c #D7BAA4",
"vX c #D7BAA5",
"bX c #D7BDBC",
"nX c #C4C3A0",
"mX c #DDC5AE",
"MX c #D6C1B2",
"NX c #D6C1BE",
"BX c #E1CBB4",
"VX c #E1CECB",
"CX c #E5D3C3",
"ZX c #E2D0CD",
"AX c #E5D5D4",
"SX c #E7E2DE",
"DX c #F4F3D5",
"FX c #F1E9E3",
"GX c #FCFBEB",
"HX c #FCFCF7",
/* pixels */
"                                                                                                    ",
"                                                                                                    ",
"                                                                                                    ",
"                                                                                                    ",
"                                                                                                    ",
"                                                                                                    ",
"                                                                                                    ",
"                                                                                                    ",
"                                                                                                    ",
"                                                                                                    ",
"                                                                                                    ",
"                                                                                                    ",
"                                              &.*.b v c                                             ",
"                                            z .XaX X/.=.x                                           ",
"                                            +.V.B.l.-.%.@.                                          ",
"                                            k 3.x.z.k.#.l                                           ",
"                                            X A 6.,.) V X                                           ",
"                                            X K Y 6 2 q X                                           ",
"                                            X | :.K 6 q X                                           ",
"                                            X ,.i.) 6 q X                                           ",
"                                            2 s.a.) s q $                                           ",
"                                          4 8.@Xw./ q 2 6 $                                         ",
"                                        2 8.#X%X0./ V 2 2 2 $ X                                     ",
"                                    & X.g.=X:XOX2.{ Y D 6 6 q q $                                   ",
"                                  $ ,.j.-X;X+Xi.4.;.| ` G m 2 s q X                                 ",
"                                  j h.&X$Xf.d.e.e.q.7.5.X.] W E s $                                 ",
"                                X u.*X,X<X>XT.T.T.T.U.U.U.P.K.G.$.s X                               ",
"                                X y.L.SXbXAXHXZXFXVXFXVXGXDXkXjXS.H X                               ",
"                                X 1.J.NXE.tXCX[.cX].cX~.mXzXW.uXF.H X                               ",
"                                X 1.J.MXQ.rXBX[.cX].cX!.yXXXR.6XA.H X                               ",
"                                X | F.sX^.pXxX[.cX].cX'.lXfX_.}.C.H X                               ",
"                                X ' Z.1X`.eXoXfX{.iXdX_.nXhX(.}.C.H X                               ",
"                                X K n.4X3X8X8XwX3X0X0X3XwX0X3X5XM.H X                               ",
"                                X q [ b.N.N.N.N.N.N.N.N.N.n.v.c.Q q X                               ",
"                                  X s K Y Y Y Y Y Y Y Y Y D 4 q q X                                 ",
"                                  X s m s q q q q q q q q 2 - s s X                                 ",
"                                    q A / 8.y...Y V V V V V h V q                                   ",
"                                      - q ! O.S q - - - - - - -                                     ",
"                                                                                                    ",
"                                                                                                    ",
"                                                                                                    ",
"                                                                                                    ",
"                                                                                                    ",
"                                                                                                    ",
"                                                                                                    ",
"                                                                                                    ",
"                                                                                                    ",
"                                                                                                    ",
"                                                                                                    ",
"                                                                                                    "
};
