/* XPM */
static char *d0d92b52ded84634e77a0c076a7bd805QxeGI61mLEPXXVwV[] = {
/* columns rows colors chars-per-pixel */
"50 50 188 2 ",
"   c #030101",
".  c #0C0202",
"X  c #140404",
"o  c #1B0505",
"O  c #110B0B",
"+  c #191919",
"@  c #230505",
"#  c #2A0606",
"$  c #260909",
"%  c #2B0909",
"&  c #340909",
"*  c #390B0B",
"=  c #231616",
"-  c #2B1414",
";  c #251C1C",
":  c #291A1A",
">  c #321515",
",  c #341C1C",
"<  c #252222",
"1  c #2D2020",
"2  c #2D2D2D",
"3  c #332424",
"4  c #382424",
"5  c #392B2B",
"6  c #343232",
"7  c #3E3C3C",
"8  c #430B0B",
"9  c #4C0D0D",
"0  c #550E0E",
"q  c #5C0E0E",
"w  c #451212",
"e  c #491414",
"r  c #451B1B",
"t  c #4B1C1C",
"y  c #5E1212",
"u  c #531919",
"i  c #610F0F",
"p  c #611111",
"a  c #6C1212",
"s  c #681F1F",
"d  c #731313",
"f  c #7D1414",
"g  c #7C1B1B",
"h  c #432222",
"j  c #492020",
"k  c #412B2B",
"l  c #4C2B2B",
"z  c #572222",
"x  c #512F2F",
"c  c #4C3131",
"v  c #463F3F",
"b  c #553636",
"n  c #5D3232",
"m  c #513838",
"M  c #5B3E3E",
"N  c #6D2323",
"B  c #672A2A",
"V  c #772828",
"C  c #713535",
"Z  c #7D3434",
"A  c #484343",
"S  c #484848",
"D  c #544545",
"F  c #534949",
"G  c #5C4C4C",
"H  c gray32",
"J  c #595252",
"K  c #5D5D5D",
"L  c #684C4C",
"P  c #744545",
"I  c #744A4A",
"U  c #794E4E",
"Y  c #6A5858",
"T  c #745454",
"R  c #735A5A",
"E  c #7B5C5C",
"W  c #646464",
"Q  c #6D6767",
"!  c #6B6B6B",
"~  c #756969",
"^  c gray46",
"/  c #7F7F7F",
"(  c #841515",
")  c #8C1616",
"_  c #821C1C",
"`  c #8D1B1B",
"'  c #921616",
"]  c #991717",
"[  c #971818",
"{  c #9E1818",
"}  c #A21919",
"|  c #AE1A1A",
" . c #B51C1C",
".. c #BB1C1C",
"X. c #8F2222",
"o. c #832828",
"O. c #912525",
"+. c #942828",
"@. c #823232",
"#. c #823E3E",
"$. c #9B3737",
"%. c #943B3B",
"&. c #A62A2A",
"*. c #B22323",
"=. c #BF2020",
"-. c #BA3A3A",
";. c #C31D1D",
":. c #CC1E1E",
">. c #D11F1F",
",. c #C92525",
"<. c #C72929",
"1. c #C92B2B",
"2. c #DE2121",
"3. c #D42A2A",
"4. c #DE2D2D",
"5. c #C83838",
"6. c #D03030",
"7. c #DB3333",
"8. c #D93C3C",
"9. c #E32424",
"0. c #E82D2D",
"q. c #EA3737",
"w. c #EA3A3A",
"e. c #844444",
"r. c #8A4B4B",
"t. c #944747",
"y. c #845454",
"u. c #895858",
"i. c #935454",
"p. c #9D5454",
"a. c #9C5B5B",
"s. c #A05D5D",
"d. c #BF5959",
"f. c #816363",
"g. c #8A6262",
"h. c #816F6F",
"j. c #936262",
"k. c #9E6565",
"l. c #827F7F",
"z. c #967878",
"x. c #A16C6C",
"c. c #A96C6C",
"v. c #CE4C4C",
"b. c #C85757",
"n. c #ED4545",
"m. c #E14E4E",
"M. c #ED4A4A",
"N. c #E75454",
"B. c #ED5252",
"V. c #E15D5D",
"C. c #D56F6F",
"Z. c #C47777",
"A. c #C57D7D",
"S. c #D67373",
"D. c #EF6F6F",
"F. c #F36363",
"G. c #F46C6C",
"H. c #F57373",
"J. c #F77D7D",
"K. c #828181",
"L. c #8D8585",
"P. c #8B8888",
"I. c #988888",
"U. c #9D9D9D",
"Y. c #A58282",
"T. c gray64",
"R. c #B7B6B6",
"E. c #B8B7B7",
"W. c #BCBCBC",
"Q. c #CC8282",
"!. c #DA8B8B",
"~. c #E98383",
"^. c #F98787",
"/. c #FB8E8E",
"(. c #ED9797",
"). c #ED9898",
"_. c #FB9292",
"`. c #FD9B9B",
"'. c #FCA0A0",
"]. c #C6C5C5",
"[. c #C8C7C7",
"{. c #CCCCCC",
"}. c gray82",
"|. c #DDDDDD",
" X c gray89",
".X c #EBEBEB",
"XX c #F4F4F4",
"oX c #FFFFFF",
/* pixels */
"oXoXoXoXoXW.! +                   + ! W.oXoXoXoXoXoXoXoXoXoXoXoXoXoXoXoXoXoXoXoXoXoXoXoXoXoXoXoXoXoX",
"oXoXoXoXXXE.Q +     . . . . .     + ! W.oXoXoXoXoXoXoXoXoXoXoXoXoXoXoXoXoXoXoXoXoXoXoXoXoXoXoXoXoXoX",
"oXoX.X{.R.I.T u w t l c c c k : O + ! W.oXoXoXoXoXoXoXoXoXoXoXoXoXoXoXoXoXoXoXoXoXoXoXoXoXoXoXoXoXoX",
"oXoX{.U.Q L Z ` O.t.a.k.k.k.u.b = + ! W.oXoXoXoXoXoXoXoXoXoXoXoXoXoXoXoXoXoXoXoXoXoXoXoXoXoXoXoXoXoX",
"oXXXR.! < w _ ;.8.V.~.(.(.(.Q.y.3 + ! W.oXoXoXoXoXoXoXoXoXoXoXoXoXoXoXoXoXoXoXoXoXoXoXoXoXoXoXoXoXoX",
"W.R.L.G - 9 ( ;.7.N.H.^._.`.!.u.4 + ! W.oXoXoXoXoXoXoXoXoXoXoXoXoXoXoXoXoXoXoXoXoXoXoXoXoXoXoXoXoXoX",
"! ! G x w i ( | <.8.m.F.J._.!.u.4 + ! W.oXoXoXoXoXoXoXoXoXoXoXoXoXoXoXoXoXoXoXoXoXoXoXoXoXoXoXoXoXoX",
"+ + > e p d ( {  .,.4.n.G./.!.u.4 + ! W.oXoXoXoXoXoXoXoXoXoXoXoXoXoXoXoXoXoXoXoXoXoXoXoXoXoXoXoXoXoX",
"    @ 9 d ( ( ' }  .:.7.N.H.S.r., + ! W.oXoXoXoXoXoXoXoXoXoXoXoXoXoXoXoXoXoXoXoXoXoXoXoXoXoXoXoXoXoX",
"    # 0 f ( ( ( ' }  .<.8.N.v.@.> + ! W.oXoXoXoXoXoXoXoXoXoXoXoXoXoXoXoXoXoXoXoXoXoXoXoXoXoXoXoXoXoX",
"    # q ) ) ( f ( ' }  .,.4.1.g & + ! W.oXoXoXoXoXoXoXoXoXoXoXoXoXoXoXoXoXoXoXoXoXoXoXoXoXoXoXoXoXoX",
"    # q ( ) ( f f ( ' }  .:.=.o.j 6 ! T.{.}.}.}.}.}.}.}.}.}.|..XoXoXoXoXoXoXoXoXoXoXoXoXoXoXoXoXoXoX",
"    @ 0 f ( ( ( ( ( ( ' }  .*.%.I K ! ^ / / / / / / / / / K.T.[.XXoXoXoXoXoXoXoXoXoXoXoXoXoXoXoXoXoX",
"    @ 9 a f ( ' ) ( f ( ' } &.p.z.P.! S 2 2 2 2 2 2 2 2 2 2 W T..XoXoXoXoXoXoXoXoXoXoXoXoXoXoXoXoXoX",
"    o * q a d ( f d p a g X.$.s.Y.I.Y 5 o o o @ $ = = = = = F P.[. X.XoXoXoXoXoXoXoXoXoXoXoXoXoXoXoX",
"    X @ * 8 9 0 9 8 8 e B #.i.i.j.g.P z 9 0 q a N C I I I I E h.K.T.[..XoXoXoXoXoXoXoXoXoXoXoXoXoXoX",
"      . X o o @ @ o o - m R g.y.e.Z V g f ' }  .-.b.A.Q.Q.A.x.T v W T. XoXoXoXoXoXoXoXoXoXoXoXoXoXoX",
"+ + + + + + + + + + + 2 S W ~ I V d ( ' } ..>.9.M.G._.`.`.'.A.U , v K.[..XXXoXoXoXoXoXoXoXoXoXoXoXoX",
"! ! ! ! ! ! ! ! ! ! ! W K H D n s d ( ' } ..>.9.w.B.G.J./.`.!.c.U T h.P.T.[..XoXoXoXoXoXoXoXoXoXoXoX",
"W.W.W.W.W.W.W.W.W.W.W.T.! 7 1 r y d ( ' } ..>.9.0.q.n.F.J.`.).!.A.x.E F W T.|.oXoXoXoXoXoXoXoXoXoXoX",
"oXoXoXoXoXoXoXoXoXoXoX{./ 2 X & 0 d ( ' }  .:.2.9.9.9.n.G._.`.`.`.Z.P = 2 K.}.oXoXoXoXoXoXoXoXoXoXoX",
"oXoXoXoXoXoXoXoXoXoXoX}./ 2 . & 0 d ( ' { | ..:.>.2.9.w.B.G.H.H.H.d.C $ 2 / }.oXoXoXoXoXoXoXoXoXoXoX",
"oXoXoXoXoXoXoXoXoXoXoX}./ 2 X & 0 d ( ' { } |  .;.>.9.0.w.n.M.M.M.-.N $ 2 / }.oXoXoXoXoXoXoXoXoXoXoX",
"oXoXoXoXoXoXoXoXoXoXoX}./ 2 X & 0 d ( ) ] { { }  .:.2.9.9.9.9.9.9.| p o 2 / }.oXoXoXoXoXoXoXoXoXoXoX",
"oXoXoXoXoXoXoXoXoXoXoX}./ 2 X & 0 d f ( ) ' ] { | ..:.:.:.:.:.;...' 0 o 2 / }.oXoXoXoXoXoXoXoXoXoXoX",
"oXoXoXoXoXoXoXoXoXoXoX}./ 2 X & 0 d d f ( ( ' { } |  . . . .| } ] d 8 X 2 / }.oXoXoXoXoXoXoXoXoXoXoX",
"oXoXoXoXoXoXoXoXoXoXoX}./ 2 . & 0 a d d d ( ) ] { { { { { { ' ( f q & X 2 l.}.oXoXoXoXoXoXoXoXoXoXoX",
"oXoXoXoXoXoXoXoXoXoXoX}./ 2 . # 9 y p a d f ( ) ) ) ) ) ) ) ( f d 0 & . 2 / }.oXoXoXoXoXoXoXoXoXoXoX",
"oXoXoXoXoXoXoXoXoXoXoX}./ 2 . @ * 9 y p d d f ( ( ( ( ( ( ( f f d 0 & . 2 / }.oXoXoXoXoXoXoXoXoXoXoX",
"oXoXoXoXoXoXoXoXoXoXoX}.K.2 . o % * 9 p a a d d d d d d d d d d a 0 & X 2 / {.oXoXoXoXoXoXoXoXoXoXoX",
"oXoXoXoXoXoXoXoXoXoXoX|.T.W 7 3 - % * 0 y y p p p p p y p p p p p u h 5 S ^ T.W.W.W.W.W.W.W.W.W.W.W.",
"oXoXoXoXoXoXoXoXoXoXoX.X[.T.l.J 3 o % * 9 9 9 9 9 9 9 9 9 9 9 9 9 z M Y ! ! ! ! ! ! ! ! ! ! ! ! ! ! ",
"oXoXoXoXoXoXoXoXoXoXoXoXXX.X]./ 6 . o % & * * * * * * * * * * * * l R I.P.K 6 + + + + + + + + + + + ",
"oXoXoXoXoXoXoXoXoXoXoXoXoXoX XT.W 6 3 - $ $ $ $ $ $ % % $ $ - , h M E I.z.L , o @ # & > , 3 = O     ",
"oXoXoXoXoXoXoXoXoXoXoXoXoXoX.X[.T./ J 3 o X X X X X o o X X - k D T u.a.i.C t 8 q a g @.e.y.b :     ",
"oXoXoXoXoXoXoXoXoXoXoXoXoXoXoX.X X].l.7 .                 . ; A Q f.r.$.+._ a a ) | <.v.C.Q.u.k .   ",
"oXoXoXoXoXoXoXoXoXoXoXoXoXoXoXoXoX.XT.W 2 2 2 2 2 2 2 2 2 2 7 H W R #.X.) ( f ( } ..3.m.D.~.p.l .   ",
"oXoXoXoXoXoXoXoXoXoXoXoXoXoXoXoXoXXX[.T.K./ / / / / l.l./ / ! K S m B g ( ( ( ( [ } *.5.m.V.%.t     ",
"oXoXoXoXoXoXoXoXoXoXoXoXoXoXoXoXoXoX.X|.}.}.}.}.}.}.}.}.}.{.T.W 2 - e a f ( ) ' ) ( ` *.6.7.O.w     ",
"oXoXoXoXoXoXoXoXoXoXoXoXoXoXoXoXoXoXoXoXoXoXoXoXoXoXoXoXoXoXW.! + o 8 p f ( ' ' ( f ( { ..;.( 8     ",
"oXoXoXoXoXoXoXoXoXoXoXoXoXoXoXoXoXoXoXoXoXoXoXoXoXoXoXoXoXoXW.! + o 9 d ( ( ( ( ( ( ( ' } } a &     ",
"oXoXoXoXoXoXoXoXoXoXoXoXoXoXoXoXoXoXoXoXoXoXoXoXoXoXoXoXoXoXW.! + @ 0 f ) ( f f ( ) ' ' ) ( 0 #     ",
"oXoXoXoXoXoXoXoXoXoXoXoXoXoXoXoXoXoXoXoXoXoXoXoXoXoXoXoXoXoXW.! + @ 0 ( ' ( f f ( ' ' ( d p e > + + ",
"oXoXoXoXoXoXoXoXoXoXoXoXoXoXoXoXoXoXoXoXoXoXoXoXoXoXoXoXoXoXW.! + o 9 d ( ( ( ( ( ( ( a 0 w x G Q ! ",
"oXoXoXoXoXoXoXoXoXoXoXoXoXoXoXoXoXoXoXoXoXoXoXoXoXoXoXoXoXoXW.! + o 8 a f ( ) ) ( ( d 0 & - G L.R.W.",
"oXoXoXoXoXoXoXoXoXoXoXoXoXoXoXoXoXoXoXoXoXoXoXoXoXoXoXoXoXoXW.! + X * q a f ( ) f d p w - < ! R.XXoX",
"oXoXoXoXoXoXoXoXoXoXoXoXoXoXoXoXoXoXoXoXoXoXoXoXoXoXoXoXoXoXW.! + . @ * 9 0 q q 0 9 e x G ! U.{.oXoX",
"oXoXoXoXoXoXoXoXoXoXoXoXoXoXoXoXoXoXoXoXoXoXoXoXoXoXoXoXoXoXW.! +   X o @ # # # # @ > G L.R.{..XoXoX",
"oXoXoXoXoXoXoXoXoXoXoXoXoXoXoXoXoXoXoXoXoXoXoXoXoXoXoXoXoXoXW.! +                   + ! R.XXoXoXoXoX",
"oXoXoXoXoXoXoXoXoXoXoXoXoXoXoXoXoXoXoXoXoXoXoXoXoXoXoXoXoXoXW.! +                   + ! W.oXoXoXoXoX"
};
