/* XPM */
static char *f2f1649568b841b0e5225fb1c3a4661fhySSf45sLaCP9wWM[] = {
/* columns rows colors chars-per-pixel */
"50 50 117 2 ",
"   c None",
".  c #A37500",
"X  c #A77900",
"o  c #AB7C00",
"O  c #AF8000",
"+  c #B28300",
"@  c #B78800",
"#  c #BA8B00",
"$  c #BE9100",
"%  c #BF9F00",
"&  c #C39400",
"*  c #C79801",
"=  c #CA9B00",
"-  c #CA9D0E",
";  c #C99E11",
":  c #C4A300",
">  c #CEA200",
",  c #CDAD00",
"<  c #D3A400",
"1  c #D4AB00",
"2  c #DCAC00",
"3  c #D2A409",
"4  c #D4B300",
"5  c #DBB300",
"6  c #DBBB00",
"7  c #DDB00E",
"8  c #CDA212",
"9  c #CAA11C",
"0  c #E3B400",
"q  c #E5B900",
"w  c #ECBC00",
"e  c #CDA526",
"r  c #C9A228",
"t  c #CEA82F",
"y  c #D5AD27",
"u  c #DFB82E",
"i  c #CDA836",
"p  c #D0AB36",
"a  c #D1AD3E",
"s  c #DEC400",
"d  c #E5C300",
"f  c #E9C501",
"g  c #E3CD00",
"h  c #EBCB00",
"j  c #EAC90B",
"k  c #F2C300",
"l  c #F3CD00",
"z  c #FECD00",
"x  c #F9CB09",
"c  c #EAD800",
"v  c #F3D300",
"b  c #FED300",
"n  c #F4DD00",
"m  c #FEDD00",
"M  c #F8D810",
"N  c #FED21A",
"B  c #FADD18",
"V  c #EEE300",
"C  c #F5E000",
"Z  c #FEE400",
"A  c #FEEB00",
"S  c #FEF300",
"D  c #FEFB00",
"F  c #FFFE0A",
"G  c #FEE611",
"H  c #FCE812",
"J  c #EFD32F",
"K  c #F4D725",
"L  c #FADD21",
"P  c #E6C034",
"I  c #EFC935",
"U  c #E5C13D",
"Y  c #FEEC2F",
"T  c #FEF423",
"R  c #FFFD22",
"E  c #D4B245",
"W  c #D2B048",
"Q  c #D5B552",
"!  c #D8BA57",
"~  c #D7BA60",
"^  c #D9BC62",
"/  c #F1D945",
"(  c #F0D04E",
")  c #F5DE48",
"_  c #E1C050",
"`  c #E7C856",
"'  c #F3DD51",
"]  c #FDE648",
"[  c #FEEF4C",
"{  c #FFFE41",
"}  c #FFF456",
"|  c #FEFE59",
" . c #DEC165",
".. c #DFC77C",
"X. c #E0C56B",
"o. c #E7CB6D",
"O. c #EAD565",
"+. c #F9DE6D",
"@. c #E2C671",
"#. c #E4CB76",
"$. c #E3C971",
"%. c #F3DB7C",
"&. c #FBE866",
"*. c #FCE864",
"=. c #FBE869",
"-. c #F8E674",
";. c #FFF97E",
":. c #E1CB85",
">. c #E8D083",
",. c #FEEF88",
"<. c #F3E598",
"1. c #FEF696",
"2. c #FFFC99",
"3. c #FEFD9D",
"4. c #FEFE9E",
"5. c #FFFEB9",
"6. c #FEFBCD",
/* pixels */
"                                                                                                    ",
"                                                                                                    ",
"                                                                                                    ",
"                                                                                                    ",
"                                                                                                    ",
"                                                                                                    ",
"                                                                                                    ",
"                                                                                                    ",
"                                          <.-.=.*.&.+.%.                                            ",
"                                      K m m m m m m b z z x (                                       ",
"                                / M m A } 2.| D S S A Z Z z z z I                                   ",
"                              J m G ;.6.,.B l f d d h k z b b z z w `                               ",
"                            j m S [ ] f , % 4 6 6 6 5 $ X = w z z w w U                             ",
"                          j m S Z h : , h H T D D D S Z l 1 o & w w w w P                           ",
"                        0 v S m 6 : h Y 3.5.R S Z f d k z z z > X = 2 w w _                         ",
"                      u 0 A m 4 1 L 1.3.{ S Z m h s > 0 z z z z q X = < q 0 X.                      ",
"                    >.0 f m 6 , Z R F D Z m m h n q @ 0 z z z z z 2 X = < q 3                       ",
"                    7 0 k 5 : m D D S m m m f ' z q @ 0 z z z z z w = X < < <  .                    ",
"                  @.0 2 k X q D D A m m m l O.N z q @ 0 z z z z k w w + + < < 3                     ",
"                  y < 0 * # A D Z m m m v g 1 z z q @ 0 z z z z w w w < . * < = 8                   ",
"                  < & 2 X q D A z z b l g 2 @ z z q @ 0 z z z w w w w q + + < = E                   ",
"                :.< # * X Z D b z z z g 0 # < n z q @ 0 z z k w w w w w & X # = -                   ",
"                #.< @ @ @ S A z z z w d 0 q w ' z q @ 0 z w w w w w w w 2 . + = =                   ",
"                o.< @ + # V b z z z z z z z w ) z q @ 2 w w w w w w w w 2 . + * =                   ",
"                o.= + O + c w k z z z z z z w n z q @ 2 w w w w w w w w < X + & =                   ",
"                o.= + o @ d w w w w w k k w 2 C z q @ 2 w w w w w w q 2 < . + $ =                   ",
"                $.< + O + 2 w w w w w w w w 2 C z 0 @ 2 w w w w w 0 2 2 = . + # =                   ",
"                ..= + + X < 0 w w w w w w w 2 C z 0 @ 2 w w w q 2 2 2 2 & . + & *                   ",
"                  = @ + . = < q w w w w w w 2 C z 0 @ 2 w w 0 2 2 2 2 > + X + & e                   ",
"                  - # + X # < < w w w w w w 2 C z 2 @ < 0 2 2 2 2 2 < = X O + = ^                   ",
"                  Q = + O . = = < q w w w w 2 n z 2 @ < 2 2 2 2 2 < = # X + @ =                     ",
"                    = @ + X + = = = < 2 2 2 < n z 2 @ < 2 2 2 2 = = = X o + & e                     ",
"                    a * + + . # = = = = > < = n z 2 @ < 2 < = = = = o X + @ =                       ",
"                      = # + o . & = = = = = & v k 2 @ * = = = = = + X + + * p                       ",
"                      ^ = + + o . @ = = = = & l 0 < + * = = = * o X + + # -                         ",
"                        W * + + O . o & = = * = = $ & * = = # . X + + @ =                           ",
"                          a * + + + o . o + & = = = = # + X X o + + + *                             ",
"                            ~ * @ + + + o X . . . . . X X o + + + @ ;                               ",
"                                ; & + + + + + + + + + + + + + @ & a                                 ",
"                                  i ; * # + + + + + + + + # * t                                     ",
"                                        ! 9 = = * * = * p r                                         ",
"                                                                                                    ",
"                                                                                                    ",
"                                                                                                    ",
"                                                                                                    ",
"                                                                                                    ",
"                                                                                                    ",
"                                                                                                    ",
"                                                                                                    ",
"                                                                                                    "
};
