/* XPM */
static char *_8a298f6582d48f9af1bc234fb24abd8TlNXyLU3sXFRpPwu[] = {
/* columns rows colors chars-per-pixel */
"32 32 210 2 ",
"   c None",
".  c #0C0400",
"X  c #0C0C00",
"o  c #150300",
"O  c #1B0200",
"+  c #140A00",
"@  c #1B0B00",
"#  c #1F1200",
"$  c #210100",
"%  c #220B00",
"&  c #2C0B00",
"*  c #330B00",
"=  c #3C0D00",
"-  c #351300",
";  c #3C1400",
":  c #351A00",
">  c #3C1A00",
",  c #3F2200",
"<  c #3B2900",
"1  c #440C00",
"2  c #431300",
"3  c #4A1500",
"4  c #431C00",
"5  c #4C1C00",
"6  c #541F00",
"7  c #591E00",
"8  c #442200",
"9  c #4C2500",
"0  c #552400",
"q  c #5C2500",
"w  c #542B00",
"e  c #5C2C00",
"r  c #4F3100",
"t  c #5C3200",
"y  c #543700",
"u  c #642C00",
"i  c #692C00",
"p  c #672300",
"a  c #623200",
"s  c #6B3500",
"d  c #663B01",
"f  c #6B3C00",
"g  c #723500",
"h  c #723C00",
"j  c #793C00",
"k  c #5C4100",
"l  c #654200",
"z  c #6C4500",
"x  c #6D4900",
"c  c #674309",
"v  c #744401",
"b  c #7A4301",
"n  c #7D4B04",
"m  c #754E0C",
"M  c #7C4C0B",
"N  c #77450C",
"B  c #7D4C13",
"V  c #7C491C",
"C  c #745F1D",
"Z  c #785A17",
"A  c #695A17",
"S  c #764F26",
"D  c #6F512D",
"F  c #775629",
"G  c #785630",
"H  c #7F6623",
"J  c #854D03",
"K  c #824D0C",
"L  c #884700",
"P  c #8E5304",
"I  c #895A0B",
"U  c #915608",
"Y  c #895817",
"T  c #975E1A",
"R  c #8D6602",
"E  c #876100",
"W  c #986709",
"Q  c #997305",
"!  c #896618",
"~  c #946314",
"^  c #9B6A13",
"/  c #93641A",
"(  c #9A621F",
")  c #9C6C18",
"_  c #996117",
"`  c #A96A1D",
"'  c #A56819",
"]  c #AF7F16",
"[  c #B1791D",
"{  c #8A5D28",
"}  c #8F5F31",
"|  c #846224",
" . c #8A6623",
".. c #946425",
"X. c #9A6720",
"o. c #976B2B",
"O. c #9A6C29",
"+. c #986927",
"@. c #987F2D",
"#. c #8B6937",
"$. c #867132",
"%. c #A06A22",
"&. c #A87D26",
"*. c #B37B23",
"=. c #B57A2C",
"-. c #B1772D",
";. c #AD7D35",
":. c #BC7D30",
">. c #937A41",
",. c #A37C45",
"<. c #A57C4D",
"1. c #AB7D49",
"2. c #B07E49",
"3. c #A67B50",
"4. c #AE8511",
"5. c #B4821C",
"6. c #B28B19",
"7. c #BB891A",
"8. c #BA931E",
"9. c #9E853A",
"0. c #AB8628",
"q. c #B68223",
"w. c #B8852A",
"e. c #B89025",
"r. c #A78338",
"t. c #B78738",
"y. c #BC9233",
"u. c #BD933B",
"i. c #C49334",
"p. c #C19537",
"a. c #C69030",
"s. c #DAB13F",
"d. c #D3AC35",
"f. c #948241",
"g. c #9D854A",
"h. c #9C8D4C",
"j. c #A3814B",
"k. c #A78E4C",
"l. c #B08E46",
"z. c #BA9445",
"x. c #A98654",
"c. c #B78850",
"v. c #AF9654",
"b. c #BF945D",
"n. c #BD9454",
"m. c #BAA065",
"M. c #C79A48",
"N. c #C19256",
"B. c #CC9856",
"V. c #DE9F5C",
"C. c #C7A442",
"Z. c #D2AD41",
"A. c #D4AA4B",
"S. c #D7AB4E",
"D. c #D6B148",
"F. c #CDA557",
"G. c #D9AE52",
"H. c #D9A954",
"J. c #C9B05C",
"K. c #D9B25A",
"L. c #E2AB58",
"P. c #E2B253",
"I. c #E1B959",
"U. c #E4AE4C",
"Y. c #C7A76A",
"T. c #E6BE63",
"R. c #FAD15A",
"E. c #ECCA6B",
"W. c #F6CC66",
"Q. c #F8CA69",
"!. c #EDD06A",
"~. c #FBD162",
"^. c #F7D16C",
"/. c #FDD16B",
"(. c #F5DA69",
"). c #FBCD73",
"_. c #FDCD7B",
"`. c #F9C878",
"'. c #ECD278",
"]. c #F3D373",
"[. c #FED474",
"{. c #FFDC75",
"}. c #FFDC7D",
"|. c #F4D07A",
" X c #FFE677",
".X c #FDCD80",
"XX c #ECD186",
"oX c #FFDC82",
"OX c #FFDC8C",
"+X c #F8D687",
"@X c #EBCD96",
"#X c #E9CE9A",
"$X c #ECD295",
"%X c #EAD797",
"&X c #FFDC95",
"*X c #F5DA9A",
"=X c #FFE184",
"-X c #FEE38C",
";X c #FFEA8B",
":X c #FFE892",
">X c #F6DCA4",
",X c #EEDCB4",
"<X c #F6DDB2",
"1X c #EFE0A5",
"2X c #FEE6A3",
"3X c #FFECA1",
"4X c #FFECAB",
"5X c #F8E7B9",
"6X c #FDEDC4",
"7X c #FFF0C6",
/* pixels */
"                                                                ",
"                      X . + o o + + O o o                       ",
"                  + . 5X6X,X6X<X>X$X@X$X9.# .                   ",
"              o o 7X1X%X< : , > : > 4 > ].'.h.o O               ",
"            @ 4X2X$X: , k J.E.A.w.y.~ e 5 ; @X%X| O             ",
"          o 2X'., 8 l.l :Xx R t t ^ 5 B.s ..4 > +XZ o           ",
"        @ %XXX8 A.0.x :X}.{.w ;X}.9 -X}.&.d p.~ ; +X .o         ",
"      o *X+X8 F.R x -X)././.oX).).oXW.~.~.5.e i./ 2 z. .O       ",
"      @ $X> K.R z {.[.G.d z d v x l z x R.~.5.i y.^ 2 b.O       ",
"    @ >XY.9 t.x ;X^.z d u.H.A.T.I.A.s.6.l x /.[ u ~ 2 b.S o     ",
"    @ XX9 F.o.d OXz 6.p.2 ..e.d.s.y.+.9 ~ d 0 _.q T B 4 9.@     ",
"  . 4XJ.8 z.d >X+Xz Q E 4 4 > 8.8.= > ; ..f e ).-.i N ; r.C X   ",
"  . 5X, z.I d 3XoX;Xt O.Y 2 R e.e.^ ; #.t e }./.L.i B d ; >.+   ",
"  + 5X- d x z }.!.=X2Xe ../ u.2 3 ~ m y w 2X^.D.M.5 e e * x..   ",
"  . 5X8 &X_.C. X(.!.OX&Xu B v n K a c y 3X-X[.Z.S.K.=.I 2 x.o   ",
"  + <X: d d x {.l ].|.&Xe 5 5 0 6 5 4 r -X].G.a P.e i u 2 <.O   ",
"  o #X> t e t oXd 0.].=Xe X.0 c.} 0 M e ^.K.Y i L.6 7 q 2 <.$   ",
"  o #X> ).P.H.-Xt d 0.W.OXa e t e t e Q.P.' u q =.w.=.J ; j.O   ",
"  o m.> s b f `.t T.h q.`..XoX}.{.W.[.*.P u n e ;.e i u 4 g..   ",
"  o v.4 ) L.h _.oXt U.g v s ] 6.4.Q f s u L e M.;.i T n : f.+   ",
"  @ ! C.> / g :./.{.e A.S.i.d d f v t.J K e ).[ P q B 4 @.A .   ",
"    % z.4 O.V.j a.~.{.t w 5 G.y.) h 0 q e _.[ W i ( d & k.@     ",
"    o #.N.3 %.f 7.R.a &.O.m w w w a t.X.b i =.J u N 2 3.D       ",
"      O N.2 b ) f ] [.e e 9 2X&X&X.X5 u u H.U e M B 2 <.        ",
"      O | M.2 n ^ f q.Q.}.W.0.)._.w.W.U.*.P i b f = r.Z         ",
"        O | n.2 J ' e W i.[ u q.*.u 5.q.P q ( h = ,.Z           ",
"          % { B.1 3 +.q _ u ' p p ` i J e V 1 1 2.F             ",
"            $ { N.B.3 2 u g L ` ` j f a = ; 1.1.S               ",
"              $ O G n.M.* > 2 3 2 4 - - r.,.G                   ",
"                  o O H f.g.x.,.j.j.g.$.C O                     ",
"                      X . @ . O O O o + .                       ",
"                                                                "
};
