/* XPM */
static char *result[] = {
/* columns rows colors chars-per-pixel */
"32 32 39 1 ",
"  c #0B0300",
". c #0D0500",
"X c #0F0700",
"o c #2F0D00",
"O c #2B1600",
"+ c #361300",
"@ c #3F1600",
"# c #3F1B00",
"$ c #401700",
"% c #4A1F00",
"& c #4F1C00",
"* c #4F1D00",
"= c #5B2900",
"- c #522A0A",
"; c #6B3600",
": c #6A3A00",
"> c #7D4D00",
", c #814800",
"< c #8B4C05",
"1 c #954F02",
"2 c #A15A02",
"3 c #966600",
"4 c #A76700",
"5 c #AD7009",
"6 c #BC7F0B",
"7 c #C39200",
"8 c #D69613",
"9 c #D8A01A",
"0 c #DEAE1F",
"q c #ECB305",
"w c #CA9F2C",
"e c #DBB435",
"r c #F6C533",
"t c #FDE626",
"y c #F9D45B",
"u c #FCE27C",
"i c #FEF383",
"p c #FCEAB1",
"a c None",
/* pixels */
"aaaaaaaaaaaaaaaaaaaaaaaaaaaaaaaa",
"aaaaaaaaaaaXXXXXXXXXXaaaaaaaaaaa",
"aaaaaaaaaXXppupuuyyy6XXaaaaaaaaa",
"aaaaaaaXXpuy####++++yy6X.aaaaaaa",
"aaaaaaXpuy##:0r0773=++yy2.aaaaaa",
"aaaaaXuy##7:p:3==3&9:3++y2.aaaaa",
"aaaaXuy#07:puu=pu&py6:73+y2.aaaa",
"aaaXuy#03:pyyyuyyuyyy6=73+82Xaaa",
"aaaXy#03:uye::::::::ty6=73+8.aaa",
"aaXue#7:iy::700rr007::y6=3+81.aa",
"aaXy#03:u:77$470074%3;=y&3>+6.aa",
"aXpe#7:pu:43OOO77OOO3;=y6=,+61.a",
"aXp#73:pup=43O3773O3;=uye=,;o6.a",
"aXu+:::uyup=447OO3,;=pyew&==o6.a",
"aXp#uyeuyyup=,,,,;;=puyeee61+6.a",
"aXu+:::u:yyu=$%%%%@=uye=e===+6.a",
"aXy+===u:6yu=4%73->=ye1=e&&&+6.a",
"aXy+yeeu=:6yu======ye5==6661+6.a",
"aX8+:::y=r:6yyuuuyy61=,=6===+6.a",
"aX8+40:yu=0:::6665::=,=86=4,o6.a",
"aX29+4:6yu=007::::7,,=y61=,+61.a",
"aa.8+40:8yu=*%073,**=y62=4;o6 aa",
"aaX29+4:6y=64,====64,=61=,+61.aa",
"aaa.8+,4:6y==&puuy&==q1=,>o6 aaa",
"aaa.29+,4:6yuy6yy6ye61=,;o61.aaa",
"aaaa.28+,4=286=66=661=3;o6<.aaaa",
"aaaaaX28++4=2=4==4=1=,+o6<.aaaaa",
"aaaaaa.288++=;,44,;=+o66<Xaaaaaa",
"aaaaaaaX.288oo++++oo661..aaaaaaa",
"aaaaaaaaa..2666666651..aaaaaaaaa",
"aaaaaaaaaaaX.....XXX.aaaaaaaaaaa",
"aaaaaaaaaaaaaaaaaaaaaaaaaaaaaaaa"
};
