/* XPM */
static char *_b1f4e0e4c834444c897d8c9ae50961d9yywnltXJSm6EzLN[] = {
/* columns rows colors chars-per-pixel */
"50 50 184 2 ",
"   c None",
".  c #1C0A00",
"X  c #2C1701",
"o  c #2B1A02",
"O  c #301B01",
"+  c #3B1F01",
"@  c #3D2200",
"#  c #392505",
"$  c #3F351A",
"%  c #412702",
"&  c #4C2202",
"*  c #4C2D02",
"=  c #532501",
"-  c #562A02",
";  c #5B2C02",
":  c #493108",
">  c #553600",
",  c #5C3302",
"<  c #54310D",
"1  c #493C1B",
"2  c #473815",
"3  c #5F3D10",
"4  c #533012",
"5  c #623302",
"6  c #6B3501",
"7  c #653A04",
"8  c #6D3A02",
"9  c #6B3C0A",
"0  c #733D01",
"q  c #6B3D15",
"w  c #493F26",
"e  c #41392A",
"r  c #5A4316",
"t  c #6D4102",
"y  c #6F470F",
"u  c #754303",
"i  c #7B4301",
"p  c #764B06",
"a  c #7A4C05",
"s  c #79470E",
"d  c #7C4C0A",
"f  c #6A4313",
"g  c #7A4C1B",
"h  c #784D19",
"j  c #7D501E",
"k  c #534725",
"l  c #514732",
"z  c #524A35",
"x  c #77642E",
"c  c #786833",
"v  c #776840",
"b  c #796C41",
"n  c #814702",
"m  c #824D03",
"M  c #894D01",
"N  c #855303",
"B  c #8A5404",
"V  c #8D5D02",
"C  c #855409",
"Z  c #8C5709",
"A  c #875809",
"S  c #8B5A0B",
"D  c #925B01",
"F  c #9D5F0F",
"G  c #985C08",
"H  c #845211",
"J  c #855F19",
"K  c #8D5B12",
"L  c #925C11",
"P  c #8D6300",
"I  c #8D620C",
"U  c #926302",
"Y  c #95620B",
"T  c #9C6409",
"R  c #97690C",
"E  c #98690F",
"W  c #996803",
"Q  c #8A6315",
"!  c #916012",
"~  c #9B6A16",
"^  c #9B6E1B",
"/  c #9C7213",
"(  c #A16607",
")  c #A56B0A",
"_  c #A46802",
"`  c #A47306",
"'  c #A1710A",
"]  c #AA7908",
"[  c #A36E13",
"{  c #A57315",
"}  c #AB7A15",
"|  c #A4741C",
" . c #AE7C1B",
".. c #AA7516",
"X. c #B07611",
"o. c #B07F14",
"O. c #B07C19",
"+. c #865C23",
"@. c #835E32",
"#. c #926D27",
"$. c #967029",
"%. c #9C7428",
"&. c #966F36",
"*. c #9D7835",
"=. c #A47624",
"-. c #A77F2E",
";. c #AB7C26",
":. c #A77E32",
">. c #A07838",
",. c #A17E42",
"<. c #B68802",
"1. c #B28108",
"2. c #B88816",
"3. c #B9851D",
"4. c #BF8E1B",
"5. c #B58512",
"6. c #A9842A",
"7. c #B88420",
"8. c #B68C2C",
"9. c #B78826",
"0. c #BC922B",
"q. c #A78537",
"w. c #AB8634",
"e. c #AD8836",
"r. c #AA853A",
"t. c #B58C33",
"y. c #B6913D",
"u. c #BB933C",
"i. c #B79434",
"p. c #C2891B",
"a. c #C69719",
"s. c #D8A81B",
"d. c #C3922B",
"f. c #C6992A",
"g. c #C09A39",
"h. c #CB9F35",
"j. c #CFA43E",
"k. c #CDA334",
"l. c #D5A738",
"z. c #D5A939",
"x. c #DBB43B",
"c. c #E2B73F",
"v. c #ECC739",
"b. c #A88942",
"n. c #A88C4C",
"m. c #B38E42",
"M. c #AC954A",
"N. c #BE9D43",
"B. c #B5984F",
"V. c #BD9E4F",
"C. c #B89648",
"Z. c #AF8B52",
"A. c #AC9351",
"S. c #AA915C",
"D. c #BC9B58",
"F. c #BDA548",
"G. c #CFA842",
"H. c #C7A34B",
"J. c #D0AE47",
"K. c #DFB744",
"L. c #DFB841",
"P. c #DAB94C",
"I. c #C0A557",
"U. c #C9A957",
"Y. c #C7A75B",
"T. c #CBAB5F",
"R. c #DAB854",
"E. c #C6AC6A",
"W. c #C0B46A",
"Q. c #C1B576",
"!. c #D6C15B",
"~. c #E4C04B",
"^. c #E8C858",
"/. c #E7C75D",
"(. c #F4D25B",
"). c #DDC76C",
"_. c #EBCC6A",
"`. c #F5D762",
"'. c #E6CE7B",
"]. c #EDD575",
"[. c #F8DD76",
"{. c #E5D689",
"}. c #F4DB82",
"|. c #F9E48C",
/* pixels */
"                                                                                                    ",
"                                                                                                    ",
"                                                                                                    ",
"                                                                                                    ",
"                                                                                                    ",
"                                                                                                    ",
"                                                                                                    ",
"                                                                                                    ",
"                                                                                                    ",
"                                                                                                    ",
"                                                                                                    ",
"                                                                                                    ",
"                                                                                                    ",
"                                          e w w w 1 2 2 o                                           ",
"                                      z b Q.S.S.A.b.q.e.6.r #                                       ",
"                                  l v W.B.+.q I C p 7 < $.t.%.<                                     ",
"                                $ A.U.#.a @.H.o.=.' ! ~ 5 f $.9.3                                   ",
"                              k M.N./ U r.'.].m.E.m.D.^.3.B N J | 7                                 ",
"                              x H./ R -.).P.w.e.q.q.e.i.v.3.D U a T %                               ",
"                            k F.Q U 6.!.6.R ] 2.p.4.5.` / 8. .V t A N .                             ",
"                            c t.I E V.e.` U u 1.s.a.` u a s t.H a 7 Z %                             ",
"                          e Q.Q V >.{.B.L N @ > <.W % * a h G. .0 5 a a                             ",
"                          w S.9 R &.].|.Z.L N V P P t u g Y.(.0.9 6 & a o                           ",
"                          w S.h u.g./.(.}.Z.i N , 5 0 q E.[.x.f.~ n - p o                           ",
"                          1 n.4 j *.y.h.`.T.= 5 u 5 - q _.K.| 9.y ; = a o                           ",
"                          1 r.f =.y.r.H l.R.+.; u 5 ; %.L.{ 0 } C 0 - a o                           ",
"                          : ^ f | 8.:.~ [ z.R.m.C.u.t.d.[ 0 8 ( m u - a o                           ",
"                          # Y 7 ) ^ R.w.{ Y ^ 7.d.9.| m 6 u ) T 0 i ; a o                           ",
"                          X Y S a T f./.-.} ' V m 0 B i u ;.p.M i 5 N t                             ",
"                            * ( a T T c.N.m 8 S R a i 0 d 7.G 0 u 5 Z X                             ",
"                            X A C 0 B O.8.K h ,.I.N.^ d M _ i i ; m 7                               ",
"                              * ) u n D ..j.J.d.~.k.d.d.( M u ; u B X                               ",
"                                , T u 8 n F X.B G B Z ) n 8 ; u m +                                 ",
"                                  7 T Z 8 ; 0 i n M 0 6 = 7 m N +                                   ",
"                                    % Z Y C & ; 7 5 - - N B 7 X                                     ",
"                                      . * N a a p p a p t O                                         ",
"                                            o o o o o o                                             ",
"                                                                                                    ",
"                                                                                                    ",
"                                                                                                    ",
"                                                                                                    ",
"                                                                                                    ",
"                                                                                                    ",
"                                                                                                    ",
"                                                                                                    ",
"                                                                                                    ",
"                                                                                                    ",
"                                                                                                    ",
"                                                                                                    ",
"                                                                                                    "
};
