/* XPM */
static char *result[] = {
/* columns rows colors chars-per-pixel */
"50 50 188 2 ",
"   c #5F8A01",
".  c #608B01",
"X  c #608B02",
"o  c #618B02",
"O  c #618B03",
"+  c #618C01",
"@  c #628D01",
"#  c #618C02",
"$  c #618C03",
"%  c #638D02",
"&  c #628C03",
"*  c #628C04",
"=  c #628D04",
"-  c #638D05",
";  c #668F0A",
":  c #649001",
">  c #689202",
",  c #689401",
"<  c #6B9701",
"1  c #6A9502",
"2  c #6C9801",
"3  c #6D9901",
"4  c #67900B",
"5  c #67910C",
"6  c #68910E",
"7  c #69910F",
"8  c #709B01",
"9  c #729F00",
"0  c #739F00",
"q  c #739E05",
"w  c #6A9210",
"e  c #6D9515",
"r  c #6F9619",
"t  c #77A300",
"y  c #78A400",
"u  c #79A600",
"i  c #79A601",
"p  c #7AA700",
"a  c #7AA701",
"s  c #7AA702",
"d  c #7BA800",
"f  c #7CA802",
"g  c #7CA805",
"h  c #749920",
"j  c #789D28",
"k  c #7C9F2E",
"l  c #80AD00",
"z  c #80AD01",
"x  c #82AF00",
"c  c #82AF01",
"v  c #84B200",
"b  c #86B400",
"n  c #88B500",
"m  c #89B600",
"M  c #89B700",
"N  c #89B702",
"B  c #8AB800",
"V  c #8BB800",
"C  c #8BB900",
"Z  c #8AB901",
"A  c #8BB901",
"S  c #8CBA00",
"D  c #8DBB00",
"F  c #8CBA01",
"G  c #8DBA01",
"H  c #8DBB01",
"J  c #8DBB02",
"K  c #8DBA03",
"L  c #8DBB03",
"P  c #8EBB03",
"I  c #8EBC03",
"U  c #8FBC06",
"Y  c #8FBC07",
"T  c #91BD06",
"R  c #91BD0E",
"E  c #96BF0D",
"W  c #82AA1C",
"Q  c #88AF1B",
"!  c #94BF10",
"~  c #95BF12",
"^  c #97BF20",
"/  c #82A436",
"(  c #85A73C",
")  c #87A83F",
"_  c #9CC214",
"`  c #A2C61C",
"'  c #A3C71E",
"]  c #9CC321",
"[  c #9FC62A",
"{  c #9EC52C",
"}  c #A6C821",
"|  c #A2C925",
" . c #ACCB28",
".. c #ACCB29",
"X. c #AECD2D",
"o. c #ABCE3B",
"O. c #A8CB3F",
"+. c #B3D137",
"@. c #8CAB47",
"#. c #8FAE4D",
"$. c #93B053",
"%. c #9FBA63",
"&. c #9FB966",
"*. c #A4C34C",
"=. c #ADCE48",
"-. c #B0CF4F",
";. c #B2D442",
":. c #B3D542",
">. c #B6D647",
",. c #BAD644",
"<. c #B6D648",
"1. c #B6D748",
"2. c #BED94C",
"3. c #BCD661",
"4. c #AAC178",
"5. c #BED871",
"6. c #C2DE59",
"7. c #C6E05C",
"8. c #C2D962",
"9. c #C3D963",
"0. c #C3DA63",
"q. c #C3D964",
"w. c #C3DA64",
"e. c #C8DD6D",
"r. c #C1DA74",
"t. c #C2DA78",
"y. c #CEE66B",
"u. c #D2E972",
"i. c #D6EC79",
"p. c #D7ED7C",
"a. c #D7ED7E",
"s. c #D8EE7F",
"d. c #D9EE7F",
"f. c #B0C681",
"g. c #B4C887",
"h. c #B9CC8F",
"j. c #BDCF95",
"k. c #C7DE82",
"l. c #C2D39E",
"z. c #D9EE80",
"x. c #D9EF80",
"c. c #DAEF81",
"v. c #DAEF83",
"b. c #D6E98A",
"n. c #D2E49D",
"m. c #D4E59F",
"M. c #CDDEA1",
"N. c #CAD9AB",
"B. c #CEDBB1",
"V. c #D2DEB7",
"C. c #D5E5A1",
"Z. c #D8E8AB",
"A. c #D5E2B8",
"S. c #E3F2A3",
"D. c #E2EDBF",
"F. c #DCE6C7",
"G. c #DDE6CA",
"H. c #E6F0C7",
"J. c #ECF6C0",
"K. c #E6F0C8",
"L. c #E4ECD4",
"P. c #E8EEDA",
"I. c #E8EFDB",
"U. c #E9EFDC",
"Y. c #EDF2E2",
"T. c #F3F8E4",
"R. c #F3F8E6",
"E. c #F4F9E7",
"W. c #F0F4E8",
"Q. c #F1F5E9",
"!. c #F5F7EE",
"~. c #F5F8F0",
"^. c #F6F8F0",
"/. c #F7FAF1",
"(. c #F7F9F2",
"). c #F8FBF0",
"_. c #F9FBF1",
"`. c #FAFBF6",
"'. c #FBFCF5",
"]. c #FBFCF9",
"[. c #FCFDFB",
"{. c #FDFDFC",
"}. c #FDFEFC",
"|. c #FEFEFD",
" X c #FEFEFE",
".X c #FEFFFE",
"XX c #FFFFFE",
"oX c white",
/* pixels */
"oXoXoXoXoXoXoXoXoXoXoXoXoXoXoXoXoXoXoXoXoXoXoXoXoXoXoXoXoXoXoXoXoXoXoXoXoXoXoXoXoXoXoXoXoXoXoXoXoXoX",
"oXoXoXoXoXoXoXoXoXoXoXoXoXoXoXoXoXoXoXoXoXoXoXoXoXoXoXoXoXoXoXoXoXoXoXoXoXoXoXoXoXoXoXoXoXoXoXoXoXoX",
"oXoXoXoXoXoXoXoXoXoXoXoXoXoXoXoXoXoXoXoXoXoXoXoXoXoXoXoXoXoXoXoXoXoXoXoXoXoXoXoXoXoXoXoXoXoXoXoXoXoX",
"oXoXoXoXoXoXoXoXoXoXoXoXoXoXoXoXoXoXoXoXoXoXoXoXoXoXoXoXoXoXoXoXoXoXoXoXoXoXoXoXoXoXoXoXoXoXoXoXoXoX",
"oXoXoXoXoXoXoXoXoXoXoXoXoXoXoXoXoXoXoXoXoXoXoXoXoXoXoXoXoXoXoXoXoXoXoXoXoXoXoXoXoXoXoXoXoXoXoXoXoXoX",
"oXoXoXoXoXoXoXoXoXoXoXoXoXoXoXoXoXoXoXoXoXoXoXoXoXoXoXoXoXoXoXoXoXoXoXoXoXoXoXoXoXoXoXoXoXoXoXoXoXoX",
"oXoXoXoXoXoXoXoXoXoXoXoXoXoXoXoXoXoXoXoXoXoXoXoXoXoXoXoXoXoXoXoXoXoXoXoXoXoXoXoXoXoXoXoXoXoXoXoXoXoX",
"oXoXoXoXoXoXoXoXoXoXoXoXoXoXoXoXoXoXoXoXoXoXoXoXoXoXoXoXoXoXoXoXoXoXoXoXoXoXoXoXoXoXoXoXoXoXoXoXoXoX",
"oXoXoXoXoXoXoXoXoXoXoXoXoXoXoXoXoXoXoXoXoXoXoXoXoXoXoXoXoXoXoXoXoXoXoXoXoXoXoXoXoXoXoXoXoXoXoXoXoXoX",
"oXoXoXoXoXoXoXoXoXoXoXoXoXoXoXoXoXoXoXoXoXoXoXoXoXoXoXoXoXoXoXoXoXoXoXoXoXoXoXoXoXoXoXoXoXoXoXoXoXoX",
"oXoXoXoXoXoXoXoXoXoXoXoXoXoXoXoXoXoXoXoXoXoXoXoXoXoXoXoXoXoXoXoXoXoXoXoXoXoXoXoXoXoXoXoXoXoXoXoXoXoX",
"oXoXoXoXoXoXoXoXoXoXoXoXoXoXoXoXoXoXoXoXoXoXoXoXoXoXoXoXoXoXoXoXoXoXoXoXoXoXoXoXoXoXoXoXoXoXoXoXoXoX",
"oXoXoXoXoXoXoXoXoXoXoXoXoXoXoXoXoXoXoXoXoXoXoXoXoXoXoXoXoXoXoXoXoXoXoXoXoXoXoXoXoXoXoXoXoXoXoXoXoXoX",
"oXoXoXoXoXoXoXoXoXoXoXoXoXoXoXoXoXoXoXoXoXoXoXoXoXoXoXoXoXoXoXoXoXoXoXoXoXoXoXoXoXoXoXoXoXoXoXoXoXoX",
"oXoXoXoXoXoXoXoXoXoXoXoXoXoXoXoXoX}.k.8.9.0.w.9.b.e.9.w.9.q.3.R.XXoXoXoXoXoXoXoXoXoXoXoXoXoXoXoXoXoX",
"oXoXoXoXoXoXoXoXoXoXoXoXoXoXoXoX|.C.Y E  .....,.z.y.X.....` J -.'.XXoXoXoXoXoXoXoXoXoXoXoXoXoXoXoXoX",
"oXoXoXoXoXoXoXoXoXoXoXoXoXoXoX.XH.! H S _  .+.i.z.z.7. .} I D H r.|.oXoXoXoXoXoXoXoXoXoXoXoXoXoXoXoX",
"oXoXoXoXoXoXoXoXoXoXoXoXoXoXXXT.] G D S D ' u.z.z.z.z.2.T Z Z G U m. XoXoXoXoXoXoXoXoXoXoXoXoXoXoXoX",
"oXoXoXoXoXoXoXoXoXoXoXoXoXXX_.=.H D D S P 6.z.z.c.c.z.p.o.D.Z.R S ~ K. XoXoXoXoXoXoXoXoXoXoXoXoXoXoX",
"oXoXoXoXoXoXoXoXoXoXoXoXoX Xt.J D D S G :.d.z.c.c.c.x.z.S.}.).{ D H [ E..XoXoXoXoXoXoXoXoXoXoXoXoXoX",
"oXoXoXoXoXoXoXoXoXoXoXoX.Xn.L S S S S | a.d.s.s.s.s.s.s.v.J.5.K S S F O.'.oXoXoXoXoXoXoXoXoXoXoXoXoX",
"oXoXoXoXoXoXoXoXoXoXoXoX/.Q s a p p f ;.<.1.1.1.1.1.1.1.1.>.^ u p p a g M.oXoXoXoXoXoXoXoXoXoXoXoXoX",
"oXoXoXoXoXoXoXoXoXoXoXoX|.g.o X . .   l B C C C C C C C V C 2 . . . o k W.oXoXoXoXoXoXoXoXoXoXoXoXoX",
"oXoXoXoXoXoXoXoXoXoXoXoXoX|.&.= # # . 3 C C S S S S S S C b . + # $ r I. XoXoXoXoXoXoXoXoXoXoXoXoXoX",
"oXoXoXoXoXoXoXoXoXoXoXoXoX X!.) # o + @ b C S S S S S C C 9 . # o 6 V. XoXoXoXoXoXoXoXoXoXoXoXoXoXoX",
"oXoXoXoXoXoXoXoXoXoXoXoXoXoX XU.h & # . y C C S S S S C m : . # - h.{.oXoXoXoXoXoXoXoXoXoXoXoXoXoXoX",
"oXoXoXoXoXoXoXoXoXoXoXoXoXoXoX XG.w $ . , B C S S S S C d . # * &..XoXoXoXoXoXoXoXoXoXoXoXoXoXoXoXoX",
"oXoXoXoXoXoXoXoXoXoXoXoXoXoXoXoX|.l.; + . x C S S S C B < o & @.(..XoXoXoXoXoXoXoXoXoXoXoXoXoXoXoXoX",
"oXoXoXoXoXoXoXoXoXoXoXoXoXoXoXoXoX[.4.$ o 8 S C S S C v + & j Y.XXoXoXoXoXoXoXoXoXoXoXoXoXoXoXoXoXoX",
"oXoXoXoXoXoXoXoXoXoXoXoXoXoXoXoXoX.X].#.# + n C S S C 0 o 7 F. XoXoXoXoXoXoXoXoXoXoXoXoXoXoXoXoXoXoX",
"oXoXoXoXoXoXoXoXoXoXoXoXoXoXoXoXoXoX XQ./ O t C S C M % 4 N. XoXoXoXoXoXoXoXoXoXoXoXoXoXoXoXoXoXoXoX",
"oXoXoXoXoXoXoXoXoXoXoXoXoXoXoXoXoXoXoX XL.e > B C C i * f.}.oXoXoXoXoXoXoXoXoXoXoXoXoXoXoXoXoXoXoXoX",
"oXoXoXoXoXoXoXoXoXoXoXoXoXoXoXoXoXoXoXoX XB.5 z C B 1 $.`.XXoXoXoXoXoXoXoXoXoXoXoXoXoXoXoXoXoXoXoXoX",
"oXoXoXoXoXoXoXoXoXoXoXoXoXoXoXoXoXoXoXoXoX Xj.q A c ( ^..XoXoXoXoXoXoXoXoXoXoXoXoXoXoXoXoXoXoXoXoXoX",
"oXoXoXoXoXoXoXoXoXoXoXoXoXoXoXoXoXoXoXoXoXoX].%.N W P. XoXoXoXoXoXoXoXoXoXoXoXoXoXoXoXoXoXoXoXoXoXoX",
"oXoXoXoXoXoXoXoXoXoXoXoXoXoXoXoXoXoXoXoXoXoXXX~.*.A. XoXoXoXoXoXoXoXoXoXoXoXoXoXoXoXoXoXoXoXoXoXoXoX",
"oXoXoXoXoXoXoXoXoXoXoXoXoXoXoXoXoXoXoXoXoXoXoXoX}.oXoXoXoXoXoXoXoXoXoXoXoXoXoXoXoXoXoXoXoXoXoXoXoXoX",
"oXoXoXoXoXoXoXoXoXoXoXoXoXoXoXoXoXoXoXoXoXoXoXoXoXoXoXoXoXoXoXoXoXoXoXoXoXoXoXoXoXoXoXoXoXoXoXoXoXoX",
"oXoXoXoXoXoXoXoXoXoXoXoXoXoXoXoXoXoXoXoXoXoXoXoXoXoXoXoXoXoXoXoXoXoXoXoXoXoXoXoXoXoXoXoXoXoXoXoXoXoX",
"oXoXoXoXoXoXoXoXoXoXoXoXoXoXoXoXoXoXoXoXoXoXoXoXoXoXoXoXoXoXoXoXoXoXoXoXoXoXoXoXoXoXoXoXoXoXoXoXoXoX",
"oXoXoXoXoXoXoXoXoXoXoXoXoXoXoXoXoXoXoXoXoXoXoXoXoXoXoXoXoXoXoXoXoXoXoXoXoXoXoXoXoXoXoXoXoXoXoXoXoXoX",
"oXoXoXoXoXoXoXoXoXoXoXoXoXoXoXoXoXoXoXoXoXoXoXoXoXoXoXoXoXoXoXoXoXoXoXoXoXoXoXoXoXoXoXoXoXoXoXoXoXoX",
"oXoXoXoXoXoXoXoXoXoXoXoXoXoXoXoXoXoXoXoXoXoXoXoXoXoXoXoXoXoXoXoXoXoXoXoXoXoXoXoXoXoXoXoXoXoXoXoXoXoX",
"oXoXoXoXoXoXoXoXoXoXoXoXoXoXoXoXoXoXoXoXoXoXoXoXoXoXoXoXoXoXoXoXoXoXoXoXoXoXoXoXoXoXoXoXoXoXoXoXoXoX",
"oXoXoXoXoXoXoXoXoXoXoXoXoXoXoXoXoXoXoXoXoXoXoXoXoXoXoXoXoXoXoXoXoXoXoXoXoXoXoXoXoXoXoXoXoXoXoXoXoXoX",
"oXoXoXoXoXoXoXoXoXoXoXoXoXoXoXoXoXoXoXoXoXoXoXoXoXoXoXoXoXoXoXoXoXoXoXoXoXoXoXoXoXoXoXoXoXoXoXoXoXoX",
"oXoXoXoXoXoXoXoXoXoXoXoXoXoXoXoXoXoXoXoXoXoXoXoXoXoXoXoXoXoXoXoXoXoXoXoXoXoXoXoXoXoXoXoXoXoXoXoXoXoX",
"oXoXoXoXoXoXoXoXoXoXoXoXoXoXoXoXoXoXoXoXoXoXoXoXoXoXoXoXoXoXoXoXoXoXoXoXoXoXoXoXoXoXoXoXoXoXoXoXoXoX",
"oXoXoXoXoXoXoXoXoXoXoXoXoXoXoXoXoXoXoXoXoXoXoXoXoXoXoXoXoXoXoXoXoXoXoXoXoXoXoXoXoXoXoXoXoXoXoXoXoXoX",
"oXoXoXoXoXoXoXoXoXoXoXoXoXoXoXoXoXoXoXoXoXoXoXoXoXoXoXoXoXoXoXoXoXoXoXoXoXoXoXoXoXoXoXoXoXoXoXoXoXoX"
};
