/* XPM */
static char *result[] = {
/* columns rows colors chars-per-pixel */
"50 50 245 2 ",
"   c #191508",
".  c #171A15",
"X  c #111510",
"o  c #270F00",
"O  c #271709",
"+  c #251B16",
"@  c #3D190C",
"#  c #19261A",
"$  c #1D200A",
"%  c #262719",
"&  c #322118",
"*  c #31220F",
"=  c #1E2828",
"-  c #0B3A37",
";  c #123435",
":  c #153839",
">  c #272B22",
",  c #34352E",
"<  c #1F1820",
"1  c #452917",
"2  c #532A17",
"3  c #5B331A",
"4  c #522C0E",
"5  c #69290A",
"6  c #742501",
"7  c #7B2500",
"8  c #7B2B02",
"9  c #792D08",
"0  c #7C340B",
"q  c #793308",
"w  c #6A2C19",
"e  c #6C3A1C",
"r  c #6A3517",
"t  c #753918",
"y  c #712F15",
"u  c #593526",
"i  c #40392E",
"p  c #733B22",
"a  c #793A23",
"s  c #653D2B",
"d  c #47180E",
"f  c #004239",
"g  c #784015",
"h  c #4F4635",
"j  c #7A4126",
"k  c #784936",
"l  c #6E5238",
"z  c #004945",
"x  c #374642",
"c  c #275A5A",
"v  c #36565B",
"b  c #3A545B",
"n  c #325959",
"m  c #355656",
"M  c #285152",
"N  c #366565",
"B  c #45554B",
"V  c #445355",
"C  c #595653",
"Z  c #69685D",
"A  c #487679",
"S  c #587879",
"D  c #507171",
"F  c #677A7A",
"G  c #767571",
"H  c #5D5F54",
"J  c #822D03",
"K  c #8C2E07",
"L  c #84340B",
"P  c #8A340B",
"I  c #87360A",
"U  c #91380D",
"Y  c #843510",
"T  c #8B3511",
"R  c #843912",
"E  c #8D3B14",
"W  c #8D3D19",
"Q  c #843D1D",
"!  c #923C13",
"~  c #933A16",
"^  c #902E07",
"/  c #813929",
"(  c #884117",
")  c #93431C",
"_  c #9A451C",
"`  c #A4461E",
"'  c #A6491B",
"]  c #A4531E",
"[  c #864729",
"{  c #9C4C23",
"}  c #974723",
"|  c #9A532A",
" . c #9C5A3A",
".. c #8C4F33",
"X. c #A44C23",
"o. c #AB4D22",
"O. c #A84A27",
"+. c #A5522C",
"@. c #AC532C",
"#. c #A85225",
"$. c #B3582D",
"%. c #AB5A33",
"&. c #A65935",
"*. c #B55C33",
"=. c #B95D32",
"-. c #B95C3A",
";. c #AB4D32",
":. c #B6633C",
">. c #BB643C",
",. c #BC6B3D",
"<. c #B76336",
"1. c #AB6236",
"2. c #C3653B",
"3. c #C4693E",
"4. c #CA6A3D",
"5. c #C86938",
"6. c #D46D3B",
"7. c #865B43",
"8. c #9A5D44",
"9. c #A75D41",
"0. c #B95F44",
"q. c #896348",
"w. c #946446",
"e. c #936C54",
"r. c #A86749",
"t. c #B56642",
"y. c #BC6642",
"u. c #BD6A44",
"i. c #B46A4A",
"p. c #BC6C4B",
"a. c #B46846",
"s. c #B9714B",
"d. c #AA755E",
"f. c #BC7152",
"g. c #BC6E54",
"h. c #91766E",
"j. c #AD7C65",
"k. c #C26643",
"l. c #CB6642",
"z. c #C36B44",
"x. c #CB6C43",
"c. c #C46D49",
"v. c #CA6D4A",
"b. c #C46749",
"n. c #D26D45",
"m. c #C5714B",
"M. c #CB734C",
"N. c #CA7648",
"B. c #D3744A",
"V. c #D47A4D",
"C. c #DA7A4B",
"Z. c #D47545",
"A. c #C66951",
"S. c #C57451",
"D. c #CB7352",
"F. c #CA7B56",
"G. c #D57C53",
"H. c #D97C52",
"J. c #D37D5A",
"K. c #D77655",
"L. c #E37E55",
"P. c #D07D63",
"I. c #52827A",
"U. c #68847F",
"Y. c #BD856B",
"T. c #B78872",
"R. c #D48055",
"E. c #DD8254",
"W. c #D4835C",
"Q. c #D7875C",
"!. c #D08054",
"~. c #C5876A",
"^. c #D68664",
"/. c #C48C73",
"(. c #CA8E74",
"). c #C1927E",
"_. c #E58C67",
"`. c #E1855C",
"'. c #3E8281",
"]. c #588687",
"[. c #598D97",
"{. c #599999",
"}. c #498E8F",
"|. c #688586",
" X c #778988",
".X c #73918C",
"XX c #6A9B9D",
"oX c #669898",
"OX c #75989A",
"+X c #6E9091",
"@X c #4DA29B",
"#X c #56A49D",
"$X c #6EA29F",
"%X c #5B9AA3",
"&X c #4F98A9",
"*X c #6799A4",
"=X c #7A9EA1",
"-X c #719BB1",
";X c #4BA5A5",
":X c #5AA2A3",
">X c #55A3A5",
",X c #59AAB2",
"<X c #58B7B6",
"1X c #4FA9B1",
"2X c #67A7A9",
"3X c #76A8A9",
"4X c #7BB5AD",
"5X c #66AAB4",
"6X c #68B8B9",
"7X c #76B7B7",
"8X c #72ADB5",
"9X c #5DC1BC",
"0X c #75C5BE",
"qX c #6BC0BB",
"wX c #68BEC2",
"eX c #79BCC4",
"rX c #6DC7C8",
"tX c #72C4C4",
"yX c #75C6CA",
"uX c #7CC4CA",
"iX c #79C9C8",
"pX c #77D2CE",
"aX c #7AD3D3",
"sX c #76D5D4",
"dX c #76CED1",
"fX c #82908D",
"gX c #80A09D",
"hX c #85ACAE",
"jX c #87B8B7",
"kX c #8DAFB2",
"lX c #B48980",
"zX c #82C3BD",
"xX c #8EBEC2",
"cX c #86C7CA",
"vX c #85D8D6",
"bX c #8BCBCD",
"nX c #BCCED3",
"mX c #83DCE0",
"MX c #DCE9EA",
"NX c #DCF2EC",
"BX c #DBF3F0",
"VX c #E5EBED",
"CX c #E7F0EF",
"ZX c #C7D9D6",
"AX c None",
/* pixels */
"AXAXAXAXAXAXAXAXAXAXAXAXAXAXAXAXAXAXAXAXnXkXf z z z z z =XAXAXAXAXAXAXAXAXAXAXAXAXAXAXAXAXAXAXAXAXAX",
"AXAXAXAXAXAXAXAXAXAXAXAXAXAXAXAXAXAXkXS M A vXiXuXiXtXdXI.n v kXAXAXAXAXAXAXAXAXAXAXAXAXAXAXAXAXAXAX",
"AXAXAXAXAXAXAXAXAXAXAXAXAXAXAXAX[.'.}.%X6X7XqX2X*X5X1XyX6X4X5X{.].D AXAXAXAXAXAXAXAXAXAXAXAXAXAXAXAX",
"AXAXAXAXAXAXAXAXAXAXAXAXAXAX=Xc {.wXdX,X#X{.zX0XOX+X7X7XoX:X@XqXuX2Xc AXAXAXAXAXAXAXAXAXAXAXAXAXAXAX",
"AXAXAXAXAXAXAXAXAXAXAXAXAX3X[.uX5X5X5XeX].I.B # O + % x U.I.3X0X2X2X8X%XAXAXAXAXAXAXAXAXAXAXAXAXAXAX",
"AXAXAXAXAXAXAXAXAXAXAXAXkXA dX5X*X*X].S # $ * 3 y w 3 1 o    XS .X$X6XiX[.AXAXAXAXAXAXAXAXAXAXAXAXAX",
"AXAXAXAXAXAXAXAXAXAXAXgXI.jX:X4XOXB , & r 4 g ] } ~ [ g r w o i B gX8X%X8XI.AXAXAXAXAXAXAXAXAXAXAXAX",
"AXAXAXAXAXAXAXAXAXAXhXXX2X{.*XOXh 1 2 w | %.] 6.5.2.u._ %.%.y 4 & , +XoX%X5XXXAXAXAXAXAXAXAXAXAXAXAX",
"AXAXAXAXAXAXAXAXAXAXA 7XcX{.+X, 4 e / 9.p.:.X.V.k.>.,.X.2.x.:.| r 2 , |.{.uXbXc AXAXAXAXAXAXAXAXAXAX",
"AXAXAXAXAXAXAXAXAX|.[.8X%XhX, 2 r N.D.k.b.>.+.K.b.k.y.{ 2.6.x.u.m.g 4 , XX,X5X[.AXAXAXAXAXAXAXAXAXAX",
"AXAXAXAXAXAXAXAXAX].[.-X*XV O e q E.K.k.v.-.;.K.A.A.i.{ 2.4.n.Z.n.R / & x oX%X8XS AXAXAXAXAXAXAXAXAX",
"AXAXAXAXAXAXAXAXAXA eX*X+X, 2  .^ E.l.l.K.-.o.K.A.A.p.{ 3.5.2.B.x.P J.5 &  X*X5X{.jXAXAXAXAXAXAXAXAX",
"AXAXAXAXAXAXAXAXN 8XcXcX.XO [ 0.^ E.x.B.N.1.o.Z.B.v.u._ z.z.3.m.3.J C.;.d G cXiX2Xn ZXAXAXAXAXAXAXAX",
"AXAXAXAXAXAXAXAXM 7X#XoX# u | 2.^ C.k.v.,.1.] C.n.x.3.` 4.z.y.p.N.( L.$.w   |.#X4Xc ZXAXAXAXAXAXAXAX",
"AXAXAXAXAXAXAXAXc 7X{.U.  k g.,.E G.k.v.z.$.' C.B.v.2.` 3.l.,.z.p.8 E.>...o U.{.6Xc nXAXAXAXAXAXAXAX",
"AXAXAXAXAXAXAX3X'.6XoXB @ [ i.:.L G.b.k.3.=.' V.x.v.k.o.4.l.u.c.M.T C.,.| @ x XX5X}.|.AXAXAXAXAXAXAX",
"AXAXAXAXAXAXAXv aXsXbX% r g.p.>.P G.,.c.3.=.' V.c.3.M.` 5.l.z.z.D.K H.>.,.e X bXsXmX- BXAXAXAXAXAXAX",
"AXAXAXAXAXAXAXv dX;X$X+ r W.t.u.K V.y.y.,.*.o.H.z.u.c.` 2.4.y.z.l.~ E.:.,.j . =X1XrX- BXAXAXAXAXAXAX",
"AXAXAXAXAXAXAXb yX;X.X1 y :.&. .P >.+.+.@.o.` >.+.&.&._ @.@.+.+.O.U :.%.| r @  X%XyX- CXAXAXAXAXAXAX",
"AXAXAXAXAXAXAXv tX#XG 7.&.X.&.| { %.+.&.+.X.` @.+.&.+.O.$.@.+.%.@.@.| | #.1.w.G {.tX; VXAXAXAXAXAXAX",
"AXAXAXAXAXAXAXv aX0XZ Y.p.V.Q.F.M.m.S.P.D.m.M.M.F.^.S.S.x.M.F.W.M.c.D.F.Q.s.d.H iXmX: VXAXAXAXAXAXAX",
"AXAXAXAXAXAXAXv iX:XZ Y.i.>.:.s.z.:.t.g.u.:.,.:.t.p.t.y.>.,.u.u.:.,.y.t.,.a.w.C #X0X; CXAXAXAXAXAXAX",
"AXAXAXAXAXAXAXb tX:XU.3 5 7 8 8 7 9 9 9 8 J 7 7 6 6 8 8 7 J 6 6 I 6 q q 6 5 1 fX$X0X: BXAXAXAXAXAXAX",
"AXAXAXAXAXAXAXb iX>X.X& 5 { } W 8 X.} W W _ P +.} } ) ! ~ } _ ) ( q { ) _ t   +X@XiX: NXAXAXAXAXAXAX",
"AXAXAXAXAXAXAXv sXpX0X# e !.t.t.P R.m.s.u.*.#.G.p.a.c.X.z.3.u.:.u.L G.4.3.e # 7XdXaX- BXAXAXAXAXAXAX",
"AXAXAXAXAXAXAXv rX;X2X# r W.r.f.P R.z.u.z.*.' H.c.u.z.X.x.3.y.t.i.L C.6.M.j < %X<XyX- CXAXAXAXAXAXAX",
"AXAXAXAXAXAXAXv bX&XXX# e f.q.q.0 H.z.z.z.$.o.V.m.c.N.X.4.3.z.u.u.L C.5.n./ . %X&XeX; AXAXAXAXAXAXAX",
"AXAXAXAXAXAXAXv eX%XXX. t i.e.l 0 G.z.c.z.=.o.B.c.c.x.X.4.5.z.m.y.I E.6.l./ < -X,XuX: AXAXAXAXAXAXAX",
"AXAXAXAXAXAXAXv cXyXjX> j s.e...L H.z.c.M.=.o.C.z.m.c.` 4.4.z.m.t.T C.6.6./ + 4XwXvX; AXAXAXAXAXAXAX",
"AXAXAXAXAXAXAXv tX<X3X# r ~.k w.R G.z.b.v.=.o.V.k.m.v.` 4.4.z.m.p.P L.6.x./ . $X,XdX: AXAXAXAXAXAXAX",
"AXAXAXAXAXAXAXb uX>XoX. e (.k w.P H.y.y.x.=.o.V.3.m.c.` 4.4.k.M.z.T H.n.v.a   {.@X0X; AXAXAXAXAXAXAX",
"AXAXAXAXAXAXAXb iX&X*X% p F... .Y G.y.u.v.-.o.B.y.M.c.` l.4.3.c.u.T H.3.l.a $ oX@XtX- AXAXAXAXAXAXAX",
"AXAXAXAXAXAXAXv pX<XeX= w P.k w.R W.u.t.N.2.' V.,.M.x.` 4.4.x.v.z.P V.4.x.p . 0X9XpX- AXAXAXAXAXAXAX",
"AXAXAXAXAXAXAXv pX9X8X> p g.w.q.q V.u.:.z.=.#.V.k.c.c.` 2.3.B.M.c.P E.5.M./ . 5XrXsX- AXAXAXAXAXAXAX",
"AXAXAXAXAXAXAXb 0X@XXX. e g.q.l q R.u.t.c.>.o.V.z.z.c.' 5.5.B.M.,.I V.5.n./ O oX&XuX: AXAXAXAXAXAXAX",
"AXAXAXAXAXAXAXb uX@XOX% w F.w.w.R J.y.t.,.>.o.Z.u.z.,.o.4.4.x.c.z.U !.3.k.a   OX{.eX: AXAXAXAXAXAXAX",
"AXAXAXAXAXAXAXV pX9X4X> p P.i.i.U K.u.c.-.2.$.B.y.c.>.` n.n.l.c.z.P L.2.:.t O hXeXaX: AXAXAXAXAXAXAX",
"AXAXAXAXAXAXAXV pX9X4X$ p ^.y.0.J G.y.y.x.-.' V.k.c.-.O.4.n.z.z.M.7 `.2.i.g O hX6XdX- AXAXAXAXAXAXAX",
"AXAXAXAXAXAXAXV aX;X+X$ e g.-.l.U G.a.%.M.:.' N.t.t.:.+.>.z.u.u.c.E m.<.<.t * .X;XyX- AXAXAXAXAXAXAX",
"AXAXAXAXAXAXAXV tX>X|.l p W U U P ! W W E P ) U W L W L U U ) R W E E ) ( ( h U.>XyX: AXAXAXAXAXAXAX",
"AXAXAXAXAXAXAXm dX6XH lXP.J.^.W.R.R.J.^.W.H.G.R.F._.J.J.G.G.J.^.J.K.W.^.^.P.lXV 6XvX; AXAXAXAXAXAXAX",
"AXAXAXAXAXAXAXn aX6XZ j.g.b.u.s.>.<.z.S.b.,.4.>.p.F.u.c.3.k.c.D.v.y.u.,.S.r.d.C 8XvX: AXAXAXAXAXAXAX",
"AXAXAXAXAXAXAXv tX2XG k W q I ( I E Y Y E L I I R R L L L L R E T R L L R t s  X%XiX: AXAXAXAXAXAXAX",
"AXAXAXAXAXAXAXn iX#XfX@ 5 I I 6 7 q q L 8 7 J 8 q q 8 6 J J 0 9 Y 6 q L ^ 5 O .X{.tX- AXAXAXAXAXAXAX",
"AXAXAXAXAXAXAXn dX6XhX& t E.B.2.^ V.u.p.z.*.O.B.u.c.c.+.z.x.u.c.p.R M.*.z.j . 4X9XsX- VXAXAXAXAXAXAX",
"AXAXAXAXAXAXAXn pX6XhX> 5 C.l.x.K K.z.S.>.*.o.H.c.M.v.~ l.x.z.S.g.L E.4.y.p X 4X9XaX- BXAXAXAXAXAXAX",
"AXAXAXAXAXAXAXv uX#XoX+ r !.u.c.P `.,.t.x.*.` G.v.A.D.` x.l.b.S.s.0 N.2.k./ X XX:XuX; VXAXAXAXAXAXAX",
"AXAXAXAXAXAXAXm xX{..X% r !.a.g.L J.p.g.u.%.+.F.S.a.F.{ v.z.t.i.r.Q R.>.y.p X OXoXjX: VXAXAXAXAXAXAX",
"AXAXAXAXAXAXAXF OXD S + w r.r.8.r r.r.8. ...[ f.r. .w...&.r.1.8.w.r s.r. .u . F F |.V AXAXAXAXAXAXAX",
"AXAXAXAXAXAXAXCX.X|.fXG h./.~./.d.)./.~.(.Y.d.(./././.d.~.~./.Y.T.j.~./.T.h.h. XF OXMXAXAXAXAXAXAXAX"
};
