/* XPM */
static char *_5a206bd3eca4f6aaf5ff8ddbc2f63a3SiNToBcejCIAv6uo[] = {
/* columns rows colors chars-per-pixel */
"50 50 132 2 ",
"   c None",
".  c #A67700",
"X  c #A77900",
"o  c #AB7C00",
"O  c #AF8100",
"+  c #B28400",
"@  c #B78900",
"#  c #BB8C00",
"$  c #BE9000",
"%  c #C39400",
"&  c #C69900",
"*  c #CA9B00",
"=  c #C29509",
"-  c #C69A0E",
";  c #C89C0B",
":  c #C59A18",
">  c #CEA000",
",  c #CEAB00",
"<  c #D3A400",
"1  c #D0AF00",
"2  c #DCAC00",
"3  c #D2A40B",
"4  c #D3B200",
"5  c #DFB100",
"6  c #DCBB00",
"7  c #CDA214",
"8  c #CBA11C",
"9  c #D6AB1A",
"0  c #DEB112",
"q  c #E2B300",
"w  c #E2B900",
"e  c #EBBB00",
"r  c #E6BE08",
"t  c #EEBF08",
"y  c #F0BF00",
"u  c #E0B619",
"i  c #CBA220",
"p  c #CFA829",
"a  c #D1AA2B",
"s  c #CFAC3E",
"d  c #D0AB36",
"f  c #D2AE3B",
"g  c #DAB436",
"h  c #DFC201",
"j  c #E3C500",
"k  c #E9C600",
"l  c #E4CA00",
"z  c #EBCE00",
"x  c #F4C400",
"c  c #F5CA00",
"v  c #FECD00",
"b  c #FECF0C",
"n  c #EED500",
"m  c #F1D202",
"M  c #FED300",
"N  c #FEDB00",
"B  c #F4D409",
"V  c #FBD508",
"C  c #F6DC0C",
"Z  c #FCDC0C",
"A  c #E2C316",
"S  c #ECCD16",
"D  c #FACE13",
"F  c #FED410",
"G  c #FBDD13",
"H  c #FADC1A",
"J  c #FDE300",
"K  c #FEEC00",
"L  c #FEE30F",
"P  c #FEF300",
"I  c #FFFA00",
"U  c #FFF208",
"Y  c #FEE510",
"T  c #FEED15",
"R  c #FFF91D",
"E  c #E9C12E",
"W  c #F1D622",
"Q  c #F9D025",
"!  c #F5DC22",
"~  c #E9C334",
"^  c #E3C239",
"/  c #F6CF32",
"(  c #F8DD34",
")  c #F7DE39",
"_  c #FAE62A",
"`  c #FFF428",
"'  c #FFFD39",
"]  c #D1AF47",
"[  c #DEBD49",
"{  c #D5B652",
"}  c #D7B956",
"|  c #D3B55B",
" . c #D8BA5D",
".. c #E2BF46",
"X. c #D9BF6F",
"o. c #EBCB56",
"O. c #E5C659",
"+. c #F4D559",
"@. c #FFEF44",
"#. c #FFFA4A",
"$. c #F7E059",
"%. c #FDF453",
"&. c #FEFB5D",
"*. c #ECD76E",
"=. c #EDDA6E",
"-. c #F2DB6B",
";. c #E3CA78",
":. c #FEF362",
">. c #FFF56A",
",. c #FBEA75",
"<. c #F6E479",
"1. c #FEF57A",
"2. c #ECD791",
"3. c #E5D39C",
"4. c #F1DE9D",
"5. c #F2E492",
"6. c #FEF69C",
"7. c #FFFE99",
"8. c #EBDAA1",
"9. c #E8D8A5",
"0. c #E7D8A8",
"q. c #E9DBAE",
"w. c #EBDDB2",
"e. c #F5E6A6",
"r. c #F7E9A7",
"t. c #F6EBAF",
"y. c #FAEDAF",
"u. c #FAEFB0",
"i. c #F0E5B8",
"p. c #F8EFBC",
"a. c #FAF0B6",
"s. c #F7EFC0",
/* pixels */
"                                                                                                    ",
"                                                                                                    ",
"                                                                                                    ",
"                                                                                                    ",
"                                                                                                    ",
"                                                                                                    ",
"                                                                                                    ",
"                                                                                                    ",
"                                                                                                    ",
"                                                                                                    ",
"                                              y.a.u.r.                                              ",
"                                      p.<.( H Z N N V D Q +.e.                                      ",
"                                  s.$.G Y @.>.` P K K N M M v / 4.                                  ",
"                                5.H L :.6.,.W z j j j k c M M v t o.                                ",
"                            t.=.B K T ) A 4 4 6 l l h , $ % e v x e ~                               ",
"                            *.m K J k 1 h ! %.R I P K N c q # % q q e E                             ",
"                          2.r J J 6 4 ! 1.7.#.K J j 4 w v v c < @ * q e ..                          ",
"                        i.0 k J 6 6 _ &.' U J N l z % q v v v v 2 + * 2 q [                         ",
"                        O.q c w 4 J I I K N N S C x # q v v v v x * + < 2 9                         ",
"                      8.0 q e @ m I P J N N B -.b x # q v v v v e e @ # < <                         ",
"                      ;.< 5 % < P P N N N m z e v x # q v v v x e e < X * < a                       ",
"                      g * < + n I N v M c l > < v x # q v v c e e e q + @ * ;                       ",
"                      9 % # # P J v v c 6 2 & 6 M x # q v c e e e e e & o % *                       ",
"                      3 $ + & P M v v x e e c ^ F x # 5 x e e e e e e < X # *                       ",
"                      < # O & n x v v v v v v A M x # 2 e e e e e e e < X @ &                       ",
"                      > # o % k e e x x x x x 6 M y # 2 e e e e e e q > X + %                       ",
"                      3 # o # q e e e e e e e 6 N e # 2 e e e e e q 2 * X + %                       ",
"                      7 # + + < e e e e e e e 6 N e # 2 e e e q 2 2 2 $ X + %                       ",
"                      p # + o * 2 e e e e e e 6 N e # 2 e q 2 2 2 2 < + o @ &                       ",
"                       .% + X % < 2 e e e e e 6 N e # < 2 2 2 2 2 < * X O # 8                       ",
"                        ; @ o o * * < q q e q 6 M e # < 2 2 2 2 < * @ X + % }                       ",
"                        d $ + X @ * * * < 2 2 4 M e # < 2 2 < * * % . + @ ; w.                      ",
"                        { ; @ + X # * * * * * 4 v q # * * * * * % X o + % }                         ",
"                           .% + O X # * * * * , x 2 + * * * * % X o + # 8 9.                        ",
"                            f # + O X o % * * * < * # % * & @ . o + @ ; q.                          ",
"                              d # + + o X o # $ % % % # + X X + + @ - 3.                            ",
"                                { % @ + + o X X X X X X o O + + # 8 0.                              ",
"                                  ] i # @ + + + + + + + + + # =  .X.                                ",
"                                      s d = % # # # # # % i  .|                                     ",
"                                              : =                                                   ",
"                                                                                                    ",
"                                                                                                    ",
"                                                                                                    ",
"                                                                                                    ",
"                                                                                                    ",
"                                                                                                    ",
"                                                                                                    ",
"                                                                                                    ",
"                                                                                                    ",
"                                                                                                    "
};
