/* XPM */
static char *d897ed7f4c4a409aea466700da85d4b9QmDFdHKlLzYM9w9J[] = {
/* columns rows colors chars-per-pixel */
"50 50 168 2 ",
"   c None",
".  c #342E35",
"X  c #36313C",
"o  c #74443C",
"O  c #7A473F",
"+  c #3D3843",
"@  c #3C3D55",
"#  c #3C3E58",
"$  c #3E415E",
"%  c #3E4361",
"&  c #7D4A41",
"*  c #6D4B53",
"=  c #7A5258",
"-  c #42486C",
";  c #444C74",
":  c #444E79",
">  c #47517E",
",  c #7F5964",
"<  c #7A5A6A",
"1  c #7B4677",
"2  c #6B5A79",
"3  c #745A71",
"4  c #833A3A",
"5  c #CC1E3E",
"6  c #D51D3E",
"7  c #D81E3E",
"8  c #C9243F",
"9  c #9E3A43",
"0  c #9E355D",
"q  c #BE2749",
"w  c #BD2640",
"e  c #BB3444",
"r  c #BB3D48",
"t  c #B83848",
"y  c #B42D54",
"u  c #BB2C53",
"i  c #A3345B",
"p  c #AB3259",
"a  c #B2315A",
"s  c #893E6C",
"d  c #9F3967",
"f  c #9B3C6B",
"g  c #A83561",
"h  c #D51F40",
"j  c #D81F40",
"k  c #C42442",
"l  c #CC2443",
"z  c #C32B42",
"x  c #C4274A",
"c  c #C4284D",
"v  c #C92D44",
"b  c #D42241",
"n  c #D52A46",
"m  c #C43848",
"M  c #D7344C",
"N  c #D9374E",
"B  c #D5394F",
"V  c #D83C51",
"C  c #8D4442",
"Z  c #824C42",
"A  c #865149",
"S  c #8D544A",
"D  c #9C5A4F",
"F  c #95544B",
"G  c #8D5B5B",
"H  c #865A5F",
"J  c #965B55",
"K  c #9E5D51",
"L  c #A64C4C",
"P  c #AA494B",
"I  c #A74549",
"U  c #B4454B",
"Y  c #A2544E",
"T  c #A6544F",
"R  c #A15C52",
"E  c #A35650",
"W  c #BA5456",
"Q  c #86416F",
"!  c #835A63",
"~  c #845965",
"^  c #86467A",
"/  c #924172",
"(  c #DB4255",
")  c #D84558",
"_  c #CA5259",
"`  c #DB515F",
"'  c #E0515F",
"]  c #DD5561",
"[  c #DE5C64",
"{  c #E25863",
"}  c #DE666C",
"|  c #DD6371",
" . c #E1636A",
".. c #E0686C",
"X. c #E16F70",
"o. c #E77273",
"O. c #E77978",
"+. c #BF8472",
"@. c #E7817C",
"#. c #485587",
"$. c #485588",
"%. c #5A5D8D",
"&. c #4E5E9C",
"*. c #4C5A91",
"=. c #535F97",
"-. c #5A5B97",
";. c #555E9D",
":. c #585D9A",
">. c #5E5791",
",. c #7D4C82",
"<. c #615B83",
"1. c #6B548C",
"2. c #685288",
"3. c #71528A",
"4. c #625995",
"5. c #4E609E",
"6. c #52609F",
"7. c #4E62A2",
"8. c #5062A2",
"9. c #A9A5A7",
"0. c #E98B82",
"q. c #ED998B",
"w. c #E79587",
"e. c #CDB495",
"r. c #D3BA9B",
"t. c #D9BF9F",
"y. c #EFA995",
"u. c #ECA291",
"i. c #F2A593",
"p. c #F3AB96",
"a. c #F1B59C",
"s. c #C1BEBF",
"d. c #EEBCAE",
"f. c #F4BDA1",
"g. c #EACDA9",
"h. c #F4C4A5",
"j. c #F7CBAB",
"k. c #FACDAC",
"l. c #F8C4A6",
"z. c #EFD0AD",
"x. c #F3D1AD",
"c. c #F7D6B1",
"v. c #FAD5B0",
"b. c #FDDAB4",
"n. c #FCDEBC",
"m. c #FDE0BF",
"M. c #CCCACB",
"N. c #D3D1D2",
"B. c #F8DEC5",
"V. c #F3D9D3",
"C. c #FDE1C3",
"Z. c #FCE5CB",
"A. c #FCE9D2",
"S. c #FDEEDD",
"D. c #F9E6D2",
"F. c #E7E7E7",
"G. c #EBEAE9",
"H. c #F8EDE4",
"J. c #F8ECE7",
"K. c #FCF1E4",
"L. c #FDF6ED",
"P. c #FEF7F0",
"I. c #FDF9F5",
"U. c #FDFDFD",
"Y. c #FEFEFE",
"T. c #FEFFFF",
"R. c #FEFEFD",
"E. c #FEFEFD",
/* pixels */
"                                              l                                                     ",
"                                          l b b b b                                                 ",
"                                        l b k k k l l                                               ",
"                                        k l k k w k l                                               ",
"                                      :.i x k k l q s -.8.                                          ",
"                                  8.7.8.2.0 k k q x Q 7.8.8.8.8.                                    ",
"                              8.7.7.7.7.6.1 i p y 1 >.7.8.7.7.7.8.                                  ",
"                            8.8.7.8.8.7.7.6.-.2.2.5.7.7.7.7.7.7.7.7.7.                              ",
"                          8.8.8.7.7.8.7.7.7.7.7.7.7.8.7.7.7.7.8.8.7.7.8.                            ",
"                        7.8.8.7.7.7.8.7.7.7.7.7.7.7.7.7.7.8.7.8.8.7.7.8.                            ",
"                      8.7.8.8.7.7.8.7.7.7.7.7.7.7.7.7.7.7.7.7.8.8.7.7.7.7.                          ",
"                      8.7.7.8.7.7.8.8.7.7.7.7.7.7.7.7.7.7.7.7.7.8.7.8.8.8.7.                        ",
"                    8.7.7.7.7.7.7.7.8.8.;.;.;.:.:.:.;.6.8.7.7.7.7.7.7.8.8.7.                        ",
"                    7.7.7.;.4.3.^ / d g a y u u u u y a g f / ,.1.-.8.7.7.7.8.                      ",
"                    1.^ d a c b j 6 7 6 6 7 6 j j 7 7 6 7 7 j b l c a f ,.4.6.                      ",
"                  c l 6 7 7 6 6 6 6 6 6 6 6 6 6 6 6 6 6 6 6 6 6 6 6 6 6 h x p                       ",
"                  6 6 6 6 6 6 b M V ) ] | | } .... .[ ` ) M n b 6 6 6 6 6 6 7 6                     ",
"                  b n ( [ O.w.y.f.j.B.J.I.I.K.B.b.b.D.J.J.V.d.u.0.X.` N n 6 6 6                     ",
"                  q.a.j.v.b.b.b.n.S.R.R.R.R.R.L.n.S.R.R.R.R.U.A.b.b.c.h.y.@.] N                     ",
"                  b.b.b.b.b.b.b.A.R.R.R.R.R.R.R.H.U.R.R.R.R.R.U.Z.b.b.b.b.b.c.h.                    ",
"                  b.b.b.b.b.b.n.L.R.R.R.R.R.R.R.G.R.R.R.R.R.R.R.K.b.b.b.b.b.b.b.                    ",
"                  v.b.b.b.b.b.C.U.R.R.R.R.9.N.R.G.R.s.M.R.R.R.R.I.n.b.b.b.b.b.v.                    ",
"                  b.b.b.b.b.b.C.U.R.R.R.R.N.F.R.K.R.M.N.R.R.R.R.U.C.b.b.b.b.b.                      ",
"                  b.b.b.b.b.v.n.I.R.R.R.R.R.R.L.C.P.R.R.R.R.R.R.I.n.b.b.b.b.b.                      ",
"                    b.b.b.b.b.b.S.R.R.R.R.R.P.C.b.Z.U.R.R.R.R.R.K.b.b.b.b.b.b.                      ",
"                    b.b.b.b.b.b.n.S.I.U.I.K.C.b.b.b.A.I.R.R.R.L.C.b.b.b.b.b.b.                      ",
"                    b.b.b.b.b.b.b.b.n.C.m.b.b.b.b.b.b.m.A.S.A.n.b.b.b.b.b.b.                        ",
"                      b.b.b.b.b.b.b.b.b.b.b.b.b.b.b.b.b.b.b.b.b.b.b.b.b.b.b.                        ",
"                      b.b.b.b.b.b.b.b.b.b.b.b.b.b.b.b.b.b.b.b.b.b.b.b.b.b.                          ",
"                        b.b.b.b.b.b.b.b.b.b.b.b.b.b.b.b.b.b.b.b.b.b.b.b.b.                          ",
"                          b.b.b.b.b.b.b.b.b.b.b.b.b.b.b.b.b.b.b.b.b.b.b.                            ",
"                          +.f.b.b.b.b.b.b.x.e.r.r.t.g.b.b.b.b.b.b.v.x.                              ",
"                          K _ i.b.b.b.b.b.c.z.c.c.z.g.v.b.b.b.b.k.@.W                               ",
"                        K K T m o.f.b.b.b.b.b.b.b.b.b.b.b.b.v.i.' v Y                               ",
"                      K K K K Y t B o.p.k.b.b.b.b.b.b.v.l.q.{ n e Y K K                             ",
"                      K K K K K K P e n (  .O.0.w.0.o.{ N b z P D K K K                             ",
"                    K K K K K K K K K L t k b l l 6 6 8 e P K K K K K K K                           ",
"                    K K K K K K K K K K K E C C 4 P L Y K K K K K K K K K                           ",
"                    K K K S F K K K K K K K & & o K K K K K K K K S K K K K                         ",
"                    E T E A D K K K R R K K R S o R K K K K K K K A D K K K                         ",
"                  U v b z 9 D K K K K K K K S Z o R K K K K K K K S F U r P                         ",
"                  b 6 6 5 l L K K K K K K K o o O K K K K K K K K I w 5 6 b                         ",
"                  b j 6 5 z D K K K K K K K K Z & K K K K K K K K t 6 5 6 6 j                       ",
"                  b j 6 6 r K K K K K K K K K & Z K K K K K K K K L 8 6 6 j b                       ",
"                      b r E K K K K K K K K o o Z K K K K K K K K E m b 6 6                         ",
"                          ~ ~ G J K K K K D S o Z R K K D K K K J G ! t                             ",
"                          7.5.=.%.<.2 3 < , ! * = H ! , < 3 2 <.%.=.&.                              ",
"                          8.7.7.7.7.7.7.7.5.&.&.&.&.&.&.7.7.7.7.7.7.8.                              ",
"                          ; - % # @ @ @ $ - : $.#.> : ; ; ; ; ; > #.*.                              ",
"                        . . . . . . . . . . . X X . . . . . . . X X + +                             "
};
