/* XPM */
static char *_31564cdee2c4afac436dbed15e48d35cZSqAdEi0534xsk5[] = {
/* columns rows colors chars-per-pixel */
"50 50 147 2 ",
"   c #190D05",
".  c #1E1007",
"X  c #1F1209",
"o  c #271407",
"O  c #2A1507",
"+  c #23150B",
"@  c #2A1609",
"#  c #2C190C",
"$  c #341B0B",
"%  c #3B1E0B",
"&  c #2C1C11",
"*  c #351F10",
"=  c #3D200D",
"-  c #352113",
";  c #3B2212",
":  c #372418",
">  c #44220C",
",  c #4B260D",
"<  c #4E280E",
"1  c #532A0E",
"2  c #5B2D0F",
"3  c #432511",
"4  c #4A2710",
"5  c #462814",
"6  c #4D2A13",
"7  c #542D13",
"8  c #5B2E11",
"9  c #563016",
"0  c #5D3114",
"q  c #5C3419",
"w  c #633212",
"e  c #6E3712",
"r  c #643816",
"t  c #6D3916",
"y  c #633619",
"u  c #66391A",
"i  c #6C3C1B",
"p  c #703712",
"a  c #733A14",
"s  c #793E17",
"d  c #733E1B",
"f  c #7A3F18",
"g  c #543823",
"h  c #75421E",
"j  c #7D421A",
"k  c #774421",
"l  c #7C4520",
"z  c #7E4C21",
"x  c #83451C",
"c  c #86481E",
"v  c #89491F",
"b  c #814721",
"n  c #844A22",
"m  c #8C4C22",
"M  c #914F23",
"N  c #8E5224",
"B  c #935024",
"V  c #905026",
"C  c #915026",
"Z  c #935126",
"A  c #945025",
"S  c #945125",
"D  c #955225",
"F  c #955327",
"G  c #965226",
"H  c #965326",
"J  c #975326",
"K  c #935524",
"L  c #965524",
"P  c #975427",
"I  c #945225",
"U  c #985326",
"Y  c #985526",
"T  c #985427",
"R  c #995427",
"E  c #995527",
"W  c #925827",
"Q  c #935927",
"!  c #925A27",
"~  c #9A5826",
"^  c #9C5927",
"/  c #9F5E27",
"(  c #9B5A27",
")  c #965328",
"_  c #965628",
"`  c #9A5528",
"'  c #995628",
"]  c #9A5628",
"[  c #9B5628",
"{  c #9A5629",
"}  c #9B5629",
"|  c #9A5729",
" . c #9C5628",
".. c #9C5629",
"X. c #9C5729",
"o. c #9D5729",
"O. c #9C5629",
"+. c #9D5829",
"@. c #9E5829",
"#. c #9E5929",
"$. c #9D5B28",
"%. c #9E582A",
"&. c #9F5A2A",
"*. c #9D5D2A",
"=. c #9E5929",
"-. c #A05A2A",
";. c #A05B2A",
":. c #A15B2A",
">. c #A15B2B",
",. c #A15C2A",
"<. c #A25D2A",
"1. c #A25C2B",
"2. c #A25D2B",
"3. c #A35D2B",
"4. c #A15F2B",
"5. c #A25E2A",
"6. c #A35F2A",
"7. c #A35E2B",
"8. c #A45E2B",
"9. c #A45F2B",
"0. c #A25D2A",
"q. c #A7652A",
"w. c #A7622C",
"e. c #A5612B",
"r. c #A9672B",
"t. c #A8632D",
"y. c #AA652D",
"u. c #AB662D",
"i. c #AB672D",
"p. c #AC672D",
"a. c #AC672E",
"s. c #AA652D",
"d. c #AD692E",
"f. c #AE692E",
"g. c #AE692E",
"h. c #B06B2F",
"j. c #B06C2F",
"k. c #B16D2F",
"l. c #B16E2F",
"z. c #B26E2F",
"x. c #B16D2F",
"c. c #B36F30",
"v. c #B46F30",
"b. c #B36F30",
"n. c #B47030",
"m. c #B57130",
"M. c #B57130",
/* pixels */
"7 { z.x a c Y C h W 8.o.o.o.o.v j D l g 1.i./ a a x m { 1.{ 9 u D a.m.m.1.x j v n i 3 q z *.P c c -.",
"0 { a.r.q.a.-.k W 1.m j v m x p a j y { ^ B a e e e a ~ c.8.D y w m a.a.-.o.m 7 < h { a.-.m a p M o.",
"j D @.8.1.@.{ n i j p e e p e e w 4 P M a a e e e e m a.m.z.-.l = a M Y U m r w a { o.@.o.{ m c o.o.",
"p a c { o.D j a 1 2 e e e e w w 2 # ) c x C v j a a c c.m.m.1.n > e p a a w < e s { D o.o.o.o.o.o.o.",
"e e e a j a e e 2 $ e 1 8 u u u i h q { { o.o.o.o.{ @.d.c.z.-.o.j $ 2 1 > $ 1 e a v D c j v D D x a ",
"1 e e e e e e e w $ 7 C o.t.z.1.o.o.i s o.o.o.o.o.o.D m x j M D s + u n N 0 1 w e M v D Y s e e a x ",
"h 1 e e e e e e < ; { o.@.d.m.d.o.o.C 2 j m D v j a e e e e e w = $ D v.z.j 2 > % > w a v s e e v o.",
"Y d 7 e e e w > $ 6 o.o.1.z.m.h.@.o.o.7 2 w e e e e e w , % $ + & $ s z.z.x a a a w $ > w e e e j o.",
"i.i.h 8 , = u t r 0 o.o.@.e.e.1.{ { Y a 2 > , 2 w 2 > > d K 7 q q i p @.h.@.D D D m a t > < w e a m ",
"i.z.9.D 7 3 e.c c y D o.o.{ c s s s a w 2 < r i y r j 1.d.| 7 n q { v C -.@.o.Y M x t 7 8 j t 8 > 7 ",
"v Y D C C 6 1.d.i.l 8 v M x p e e e 1 , t ~ z.a.9.e.8.-.o.i l @.7 x { o.o.o.m a w , 1 b 1.z.z.e.0 n ",
"p s s a D u n i.e.m > w a p e e e e % e m 1.8.@.o.o.o.o.n u i.d.y w v o.o.Y s e > 0 p D i.d.e.P q Y ",
"e e e e s 7 w c x a w X > 2 w e e e X 8 e p j M m x s 7 y e.m.d.C > e s j a 8 $ $ y w a s a e w % a ",
"e e e e e O 2 e e e w $ w 2 < , , , $ ; w e e e e e > 2 j -.d.e.o.y 2 e e 8 7 M -.d.i > 2 8 y h i 2 ",
"e e e e > $ $ w w 8 , a B c c v B K y * y 0 2 e e % 2 e p x D m c x w = , < 8 7 7 z u < j t.c.m.d.i ",
"1 8 8 < 1 e 1 $ < 8 s e.h.d.i.i.i.e.0 r e.1.d 0 0 , 7 8 e p a a p e e > 2 e e w w 8 8 c d.m.z.z.e.B ",
"w w r j m M 8 2 a B d.d.1.-.@.{ h 7 w v m.d.@.{ { D C 7 $ w e e e e w , % 1 w w w 2 w B 1.^ x j a p ",
"1.e.o.o.o.C 7 e x 8.e.o.D m x 7 7 w 2 0 i 9 7 u y 6 7 7 2 < 2 2 2 , r h *.n 8 1 y y 7 x m s p e e e ",
"c.d.C m D { 8 w p s x s a 8 % w x j e 7 + @ r j j N Y a e e w a x 9 { z.z.{ j m o.q = Y j a e e e e ",
"m.e.a p a Y h 1 e e w > > 8 c 1.e.@.x 6 k 6 x d.m.m.d.m x m D { o.l 7 @.@.o.{ o.o.c 3 o.o.x e e e e ",
"z.c e e e j D 3 % > : : i -.v.c.e.{ 6 j o.y j i.m.m.v.-.e.d.z.h.d.@.3 a p v D m s > h d.z.@.M v j s ",
"D a e e e a D d 2 e e e > N d.1.C 0 w a o.d w m 1.d.t.h.m.m.m.m.m.@.u 2 e p p w 6 > P v.m.e.o.o.{ x ",
"a e e e e a D C 6 e x j < 7 m n 6 @ e p Y m < a C o.o.{ @.1.i.d.i.o.i @ 2 w < y n 0 m @.1.@.Y M a % ",
"e e e e p c U m , e Y 1.x w $ > r > e p D { y 2 a s j a a a j x c C 9 & ; i N -.m 8 a s s s a w % # ",
"e e e e p a a 1 1 a e.z.o.x < N i.h 8 e m D m , 2 e e e e e e e e a s + i d.z.1.Y 6 e e e 2 $ & q 6 ",
"8 e e e w 2 > 8 x / m.h.D i N m.z.1.$ 0 a a p w % 1 e e e e p e e e e y { 1.1.o.j < w 8 1 7 5 5 { u ",
"y , e w > > t m e.v.c.1.y k z.m.a.-.; ; w e e e 2 . > w e e p p e e e u Y D M m p 2 > % > C i l o.k ",
"a $   > w e a j x D o.y C e.z.1.m D ; - @ % < < i y & + > < , > > > @ 2 p e e e e e 2 7 N e.u t D 0 ",
"1 > w 2 2 w e e e e t 0 { @.C s e a > w e e a m @.@.D 3 m a e e e e 2 > 8 e e e e 1 y e.c.h.i 2 p < ",
"w a a e w 2 1 w e e w < a s p e 2 > e e a m @.i.m.a.e.l 7 D B v x x m { h 7 w w < % | m.m.i.n 4 w < ",
"x D C x a e w 2 2 8 1 % w w 2 < , r x e a M e.z.m.m.i.{ q C d.i.1.Y U o.o.i > y l i r P i.z.1.u 1 2 ",
"z.z.i.o.U m x s w y n x w r q & w m m e p m e.z.m.m.1.o.l P d.z.d.m a x C n h o.1.y e x -.z.z.e.i 7 ",
"m.m.e.{ o.o.o.l h @.c.h.o.o.{ 4 t Y M e e x o.-.8.a.-.o.h t m @.Y a e e a r n M m 7 a v o.i.z.z.h.N ",
"m.z.-.x m D m 0 j e.m.e.m M o.y 0 x x e e a D o.o.o.o.o.i < a x s e e e w y j p p > e p s x C @.1.-.",
"@.o.x e p w % 2 p s x a p x o.{ y > w e e e a x j a m { 7 @ 1 e e e w 3 $ t s e e o w p e e p a j x ",
"s s e w < + $ > w e e e p x M m m j % 1 w w e e e w < 7 w e 2 > , > & - % w w < # 3 = w e e e e e e ",
"0 8 0 h _ 3 w a 7 2 e e e e w < > > , w w 0 # > < 1 w e e e e e e , ; { m 1 1 w h u x 1 , 1 2 2 1 , ",
"@.@.z.m.m.n 0 x C h 4 1 < = % > e e p x e.n 7 e e e e p p p s p e > m o.@.@.~ 1.@.q o.x p w 8 0 w e ",
"~ d.m.m.c._ w a e.z.@.n j d 0 w e a v 8.m.n 1 e p x m M B Y 1.x p 2 s { i.g.e.^ o.9 i.1.m j v M B v ",
"a m 1.1.B y 8 m z.z.d.o.Y Y u w j C e.1.c.e.0 8 s 1.d.z.c.m.c.1.C r e j v Y Y D n z m.i.@.@.e.d.z.@.",
"e p j a 1 @ w s C P m j a x i 8 x o.d.-.1.@.C 8 a @.8.i.d.t.1.@.o.0 p e e a a t u z.m.9.o.1.z.m.i.o.",
"w e e w 3 5 w e p a p e e w , 0 v o.e.1.Y x M n 0 C i y h D Y D c = w p e e w > z m.z.@.C Y e.z.1.{ ",
"j w w 9 i.d.d w e e w 2 1 = # w m o.Y j x a p m n $ r a 8 > 1 < = ; % , > , = 8 j o.D j p m o.Y x 7 ",
"z.z y l m.m.1.3 = > h m M c y < e a j e e e e p x 6 -.@.x w 7 D e.e.m a a s a 1 e s a e e a j w $ & ",
"B e.@.u @.t.Y 0 q C o.@.t.-.o.l 0 e e e e e e 8 0 W c.-.D 7 > x @.-.o.o.o.o.o.u 2 e e e e w 7 u P i.",
"a M o.n n M a 0 C o.@.d.v.h.8.o.h 8 e e e w 1 i P m.d._ h i r 7 r m { o.o.e.t.{ y w e e 2 0 m { d.m.",
"e v o.h c D c i n { @.d.c.m.c.e.D 0 > < $ # 7 j M ^ m 0 n x p a i 8 s D @.d.m.z.@.3 > = $ 8 v D -.t.",
"p C D 1 x D D m 7 t x B -.i.e.@.n 4 w y d 5 7 e p a p 8 D s e p a d 8 a m e.z.z.@.6 : 3 r 1 w a j m ",
"p j i > p a a t $ % 8 p s j v c 8 8 m m o.{ y w e e e w m j p p e x 7 e a D @.D x = a m @.a > w e e ",
"0 7 7 q u 0 w < b C 8 w e e e e 1 j o.o.@.i.n = 7 w e , m D j p p c i 8 e a w 1 % w M 8.z.Y r $ w e "
};
